<svg width="20" height="21" viewBox="0 0 20 21" fill="none" xmlns="http://www.w3.org/2000/svg">
<path d="M13.71 11.627C13.801 11.5319 13.8724 11.4197 13.92 11.297C14.02 11.0535 14.02 10.7805 13.92 10.537C13.8724 10.4142 13.801 10.3021 13.71 10.207L10.71 7.207C10.5217 7.01869 10.2663 6.9129 10 6.9129C9.7337 6.9129 9.47831 7.01869 9.29 7.207C9.1017 7.3953 8.99591 7.65069 8.99591 7.917C8.99591 8.1833 9.1017 8.43869 9.29 8.627L10.59 9.917H7C6.73479 9.917 6.48043 10.0224 6.2929 10.2099C6.10536 10.3974 6 10.6518 6 10.917C6 11.1822 6.10536 11.4366 6.2929 11.6241C6.48043 11.8116 6.73479 11.917 7 11.917H10.59L9.29 13.207C9.19628 13.3 9.12188 13.4106 9.07111 13.5324C9.02034 13.6543 8.99421 13.785 8.99421 13.917C8.99421 14.049 9.02034 14.1797 9.07111 14.3016C9.12188 14.4234 9.19628 14.534 9.29 14.627C9.38297 14.7207 9.49357 14.7951 9.61543 14.8459C9.73729 14.8967 9.86799 14.9228 10 14.9228C10.132 14.9228 10.2627 14.8967 10.3846 14.8459C10.5064 14.7951 10.617 14.7207 10.71 14.627L13.71 11.627ZM20 10.917C20 8.93918 19.4135 7.00579 18.3147 5.36129C17.2159 3.7168 15.6541 2.43508 13.8268 1.6782C11.9996 0.921325 9.98891 0.723292 8.0491 1.10914C6.10929 1.495 4.32746 2.4474 2.92894 3.84593C1.53041 5.24445 0.578004 7.02628 0.192152 8.96609C-0.193701 10.9059 0.00433284 12.9166 0.761209 14.7438C1.51809 16.5711 2.79981 18.1329 4.4443 19.2317C6.08879 20.3305 8.02219 20.917 10 20.917C12.6522 20.917 15.1957 19.8634 17.0711 17.9881C18.9464 16.1127 20 13.5692 20 10.917ZM2 10.917C2 9.33475 2.4692 7.78803 3.34825 6.47243C4.2273 5.15684 5.47673 4.13146 6.93854 3.52596C8.40035 2.92046 10.0089 2.76203 11.5607 3.07071C13.1126 3.3794 14.538 4.14132 15.6569 5.26014C16.7757 6.37896 17.5376 7.80443 17.8463 9.35627C18.155 10.9081 17.9965 12.5167 17.391 13.9785C16.7855 15.4403 15.7602 16.6897 14.4446 17.5688C13.129 18.4478 11.5823 18.917 10 18.917C7.87827 18.917 5.84344 18.0741 4.34315 16.5739C2.84286 15.0736 2 13.0387 2 10.917Z" fill="#00787E"/>
</svg>
