<svg width="14" height="17" viewBox="0 0 14 17" fill="none" xmlns="http://www.w3.org/2000/svg">
<path d="M7.89974 12.66V10.66H9.89974V9.32667H7.89974V7.32667H6.56641V9.32667H4.56641V10.66H6.56641V12.66H7.89974Z" fill="white"/>
<path d="M12.5664 2.66H11.2331V4.66H11.8997V14.66H2.56641V4.66H3.23307V2.66H1.89974C1.16441 2.66 0.566406 3.258 0.566406 3.99333V15.3267C0.566406 16.062 1.16441 16.66 1.89974 16.66H12.5664C13.3017 16.66 13.8997 16.062 13.8997 15.3267V3.99333C13.8997 3.258 13.3017 2.66 12.5664 2.66Z" fill="white"/>
<path d="M4.56657 5.32667H9.8999C10.0767 5.32667 10.2463 5.25643 10.3713 5.1314C10.4963 5.00638 10.5666 4.83681 10.5666 4.66V2.66C10.5666 2.48319 10.4963 2.31362 10.3713 2.1886C10.2463 2.06357 10.0767 1.99333 9.8999 1.99333H9.11924C8.8439 1.21733 8.10257 0.66 7.23324 0.66C6.3639 0.66 5.62257 1.21733 5.34724 1.99333H4.56657C4.38976 1.99333 4.22019 2.06357 4.09516 2.1886C3.97014 2.31362 3.8999 2.48319 3.8999 2.66V4.66C3.8999 4.83681 3.97014 5.00638 4.09516 5.1314C4.22019 5.25643 4.38976 5.32667 4.56657 5.32667Z" fill="white"/>
</svg>
