<svg width="24" height="18" viewBox="0 0 24 18" fill="none" xmlns="http://www.w3.org/2000/svg">
<path fill-rule="evenodd" clip-rule="evenodd" d="M23.9825 8.33696C23.9474 5.51996 23.7017 2.69078 22.5902 1.64812C22.1632 1.24569 21.7596 0.989604 20.1333 0.83717C18.1093 0.635956 15.3599 0.611566 13.2833 0.605469C12.4234 0.605469 11.5693 0.605469 10.7094 0.605469C8.63275 0.611566 5.88337 0.635956 3.84766 0.831072C2.22729 0.989604 1.81781 1.2396 1.39077 1.64202C0.267625 2.70907 0.033636 5.62362 0.0043873 8.4833C-0.00146243 9.01377 -0.00146243 9.55034 0.0043873 10.0869C0.0394857 12.9283 0.279325 15.7941 1.39662 16.8489C1.82365 17.2513 2.22729 17.5074 3.85351 17.6599C5.88337 17.855 8.63275 17.8855 10.7153 17.8855C11.5752 17.8855 12.4292 17.8855 13.2891 17.8855C15.3658 17.8794 18.1152 17.855 20.1509 17.6599C21.7713 17.5013 22.1807 17.2513 22.6078 16.8489C23.7134 15.8063 23.9591 12.9771 24 10.1601C23.9942 9.55034 23.9942 8.9406 23.9825 8.33696ZM9.64475 13.0685V5.65411L15.6992 9.25157L9.64475 13.0685Z" fill="#2964B0"/>
</svg>
