<svg width="19" height="15" viewBox="0 0 19 15" fill="none" xmlns="http://www.w3.org/2000/svg">
<path d="M17.5537 0.66H1.80371C1.57165 0.66 1.34909 0.752187 1.18499 0.916282C1.0209 1.08038 0.928711 1.30294 0.928711 1.535V11.16C0.928711 11.3921 1.0209 11.6146 1.18499 11.7787C1.34909 11.9428 1.57165 12.035 1.80371 12.035H4.42871V7.66H2.67871V5.91H16.6787V7.66H14.9287V12.035H17.5537C17.7858 12.035 18.0083 11.9428 18.1724 11.7787C18.3365 11.6146 18.4287 11.3921 18.4287 11.16V1.535C18.4287 1.30294 18.3365 1.08038 18.1724 0.916282C18.0083 0.752187 17.7858 0.66 17.5537 0.66ZM13.1787 5.035H11.4287V3.285H13.1787V5.035ZM15.8037 5.035H14.0537V3.285H15.8037V5.035Z" fill="white"/>
<path d="M7.05371 7.66H5.30371V13.785C5.30371 14.0171 5.3959 14.2396 5.55999 14.4037C5.72409 14.5678 5.94665 14.66 6.17871 14.66H13.1787C13.4108 14.66 13.6333 14.5678 13.7974 14.4037C13.9615 14.2396 14.0537 14.0171 14.0537 13.785V7.66H7.05371Z" fill="white"/>
</svg>
