<svg width="10" height="11" viewBox="0 0 10 11" fill="none" xmlns="http://www.w3.org/2000/svg">
<path d="M9.09218 1.11063C9.48321 1.50166 9.76535 1.85168 9.37432 2.24271L6.26375 5.35327L9.37432 8.46383C9.76464 8.85416 9.48321 9.20488 9.09218 9.59591C8.70115 9.98694 8.35042 10.2684 7.9601 9.87805L4.84954 6.76749L1.73898 9.87805C1.34865 10.2684 0.997928 9.98694 0.606898 9.59591C0.215868 9.20488 -0.0655602 8.85416 0.324763 8.46383L3.43533 5.35327L0.324763 2.24271C-0.0662673 1.85168 0.215868 1.50166 0.606898 1.11063C0.997928 0.719601 1.34795 0.437465 1.73898 0.828495L4.84954 3.93906L7.9601 0.828495C8.35113 0.437465 8.70115 0.719601 9.09218 1.11063Z" fill="white"/>
</svg>
