<svg xmlns="http://www.w3.org/2000/svg" width="126" height="84" viewBox="0 0 126.78 84.85"><defs><style>.cls-1{fill:#273aaa;}</style></defs><title>logo-icon</title><g id="icon-logo" data-name="icon-logo"><path class="cls-1" d="M84.52,0A42,42,0,0,0,63.39,5.69,41.85,41.85,0,0,0,42.26,0a42.43,42.43,0,0,0,0,84.85,42,42,0,0,0,21.13-5.69,42.22,42.22,0,0,0,63.39-36.73A42.34,42.34,0,0,0,84.52,0ZM65.86,77.6c.12-.07.22-.16.34-.24C66.08,77.44,66,77.53,65.86,77.6Zm18.66-3.33A31.49,31.49,0,0,1,72.6,71.94a42.54,42.54,0,0,0,6.64-50.06A21.05,21.05,0,0,0,70,27,31.7,31.7,0,1,1,42.26,10.58a31.5,31.5,0,0,1,11.92,2.34A42.53,42.53,0,0,0,47.54,63a21.05,21.05,0,0,0,9.22-5.13A31.7,31.7,0,1,1,84.52,74.27Z"/></g></svg>