<svg width="17" height="17" viewBox="0 0 17 17" fill="none" xmlns="http://www.w3.org/2000/svg">
<path d="M12.5289 15.3267C9.80707 15.3231 7.19775 14.2403 5.27314 12.3157C3.34853 10.3911 2.26573 7.78181 2.26221 5.06C2.26221 4.24667 2.5853 3.46665 3.16041 2.89154C3.73552 2.31643 4.51554 1.99333 5.32887 1.99333C5.5011 1.99202 5.67304 2.00765 5.84221 2.04C6.00575 2.0642 6.16652 2.10439 6.32221 2.16C6.43171 2.19842 6.52928 2.26476 6.60528 2.35245C6.68128 2.44014 6.73307 2.54615 6.75554 2.66L7.66887 6.66C7.69349 6.76858 7.69053 6.88159 7.66025 6.98872C7.62997 7.09586 7.57335 7.19371 7.49554 7.27333C7.40887 7.36667 7.40221 7.37333 6.58221 7.8C7.23887 9.24057 8.39101 10.3974 9.82887 11.06C10.2622 10.2333 10.2689 10.2267 10.3622 10.14C10.4418 10.0622 10.5397 10.0056 10.6468 9.97529C10.754 9.94501 10.867 9.94205 10.9755 9.96667L14.9755 10.88C15.0857 10.9056 15.1876 10.9588 15.2716 11.0346C15.3556 11.1104 15.4189 11.2063 15.4555 11.3133C15.5118 11.4716 15.5542 11.6344 15.5822 11.8C15.609 11.9676 15.6224 12.137 15.6222 12.3067C15.6099 13.1165 15.2777 13.8886 14.6982 14.4544C14.1186 15.0202 13.3388 15.3338 12.5289 15.3267Z" fill="white"/>
</svg>
