<?xml version="1.0" encoding="utf-8"?>
<!-- Generator: Adobe Illustrator 27.8.1, SVG Export Plug-In . SVG Version: 6.00 Build 0)  -->
<svg version="1.1" id="Layer_1" xmlns="http://www.w3.org/2000/svg" xmlns:xlink="http://www.w3.org/1999/xlink" x="0px" y="0px"
	 viewBox="0 0 17 17" style="enable-background:new 0 0 17 17;" xml:space="preserve">
<style type="text/css">
	.st0{fill:#2964B0;}
</style>
<path class="st0" d="M12.1,10.6h-0.8l-0.3-0.3c0.9-1.1,1.5-2.5,1.5-4c0-3.4-2.8-6.2-6.2-6.2S0.2,2.9,0.2,6.4s2.8,6.2,6.2,6.2
	c1.5,0,2.9-0.6,4-1.5l0.3,0.3v0.8l4.8,4.8l1.4-1.4L12.1,10.6z M6.4,10.6c-2.4,0-4.3-1.9-4.3-4.3S4,2.1,6.4,2.1
	c2.4,0,4.3,1.9,4.3,4.3S8.7,10.6,6.4,10.6z"/>
</svg>
