<svg width="26" height="25" viewBox="0 0 26 25" fill="none" xmlns="http://www.w3.org/2000/svg">
<path fill-rule="evenodd" clip-rule="evenodd" d="M1.25586 8.41553H6.36221V24.2452H1.25586V8.41553Z" fill="#2964B0"/>
<path fill-rule="evenodd" clip-rule="evenodd" d="M14.5315 15.0522V24.2436H9.42519V11.9884C9.42519 11.9884 9.34009 8.95296 9.34009 8.41396H14.3613L14.5315 10.5983C15.5528 9.06643 17.0847 7.90332 19.1273 7.90332C22.7017 7.90332 25.2549 10.4565 25.2549 15.0522V24.2436H20.1485V15.5628C20.1485 13.0097 18.9003 11.9884 17.3684 11.9884C15.8365 11.9884 14.5315 13.0097 14.5315 15.0522Z" fill="#2964B0"/>
<path fill-rule="evenodd" clip-rule="evenodd" d="M3.78056 5.8621H3.75219C1.9366 5.8621 0.745117 4.61388 0.745117 3.05361C0.745117 1.46497 1.96497 0.245117 3.83729 0.245117C5.68125 0.245117 6.84437 1.46497 6.87273 3.05361C6.87273 4.61388 5.68125 5.8621 3.78056 5.8621Z" fill="#2964B0"/>
</svg>
