<svg width="24" height="21" viewBox="0 0 24 21" fill="none" xmlns="http://www.w3.org/2000/svg">
<path d="M24 2.81728C23.098 3.2086 22.1441 3.46728 21.168 3.58528C22.1978 2.97007 22.9695 2.00222 23.34 0.861283C22.3723 1.43736 21.3129 1.84324 20.208 2.06128C19.4695 1.26037 18.486 0.727238 17.4118 0.545505C16.3376 0.363771 15.2335 0.543713 14.2725 1.05711C13.3116 1.57051 12.5483 2.38832 12.1023 3.38229C11.6563 4.37625 11.5528 5.49015 11.808 6.54928C9.85131 6.45031 7.93733 5.94083 6.19039 5.05392C4.44344 4.16701 2.90262 2.92251 1.668 1.40128C1.23497 2.15748 1.00742 3.01387 1.008 3.88528C1.00646 4.69454 1.20506 5.49162 1.58611 6.20556C1.96715 6.9195 2.51882 7.52813 3.192 7.97728C2.40957 7.95599 1.64386 7.74604 0.96 7.36528V7.42528C0.965864 8.55915 1.36319 9.65619 2.08478 10.5308C2.80636 11.4055 3.80791 12.0041 4.92 12.2253C4.49191 12.3556 4.04745 12.4243 3.6 12.4293C3.29027 12.4257 2.98131 12.3976 2.676 12.3453C2.99269 13.3207 3.60555 14.1731 4.42929 14.7839C5.25303 15.3947 6.24669 15.7335 7.272 15.7533C5.54064 17.1156 3.40306 17.8591 1.2 17.8653C0.798882 17.8666 0.398083 17.8426 0 17.7933C2.24931 19.2456 4.87058 20.0165 7.548 20.0133C9.39563 20.0325 11.2286 19.6833 12.9397 18.9862C14.6509 18.2891 16.206 17.2579 17.5142 15.9531C18.8225 14.6482 19.8576 13.0958 20.5591 11.3864C21.2606 9.67699 21.6144 7.84495 21.6 5.99728C21.6 5.79328 21.6 5.57728 21.6 5.36128C22.5416 4.65906 23.3538 3.79819 24 2.81728Z" fill="#2964B0"/>
</svg>
