<svg width="24" height="25" viewBox="0 0 24 25" fill="none" xmlns="http://www.w3.org/2000/svg">
<path d="M15.1817 9.06313C16.9391 10.8205 16.9391 13.6697 15.1817 15.4271C13.4244 17.1844 10.5751 17.1844 8.81777 15.4271C7.06042 13.6697 7.06042 10.8205 8.81777 9.06313C10.5751 7.30578 13.4244 7.30578 15.1817 9.06313Z" fill="#2964B0"/>
<path d="M17.25 0.245117H6.75C3.02782 0.245117 0 3.27294 0 6.99512V17.4951C0 21.2173 3.02782 24.2451 6.75 24.2451H17.25C20.9722 24.2451 24 21.2173 24 17.4951V6.99512C24 3.27294 20.9722 0.245117 17.25 0.245117ZM12 18.2451C8.69164 18.2451 6 15.5542 6 12.2451C6 8.93604 8.69164 6.24512 12 6.24512C15.3084 6.24512 18 8.93604 18 12.2451C18 15.5542 15.3084 18.2451 12 18.2451ZM18.75 6.24512C18.3358 6.24512 18 5.9093 18 5.49512C18 5.08084 18.3358 4.74512 18.75 4.74512C19.1642 4.74512 19.5 5.08084 19.5 5.49512C19.5 5.9093 19.1642 6.24512 18.75 6.24512Z" fill="#2964B0"/>
</svg>
