<svg width="12" height="8" viewBox="0 0 12 8" fill="none" xmlns="http://www.w3.org/2000/svg">
<g id="Vector">
<g id="Vector_2">
<path fill-rule="evenodd" clip-rule="evenodd" d="M8.14645 0.306359C8.34171 0.111097 8.65829 0.111097 8.85355 0.306359L11.8536 3.30636C12.0488 3.50162 12.0488 3.8182 11.8536 4.01347L8.85355 7.01347C8.65829 7.20873 8.34171 7.20873 8.14645 7.01347C7.95118 6.8182 7.95118 6.50162 8.14645 6.30636L10.7929 3.65991L8.14645 1.01347C7.95118 0.818203 7.95118 0.501621 8.14645 0.306359Z" fill="#00787E"/>
<path fill-rule="evenodd" clip-rule="evenodd" d="M0 3.65991C2.41411e-08 3.38377 0.223858 3.15991 0.5 3.15991L11 3.15991C11.2761 3.15991 11.5 3.38377 11.5 3.65991C11.5 3.93606 11.2761 4.15991 11 4.15991L0.5 4.15991C0.223858 4.15991 -2.41411e-08 3.93605 0 3.65991Z" fill="#00787E"/>
</g>
</g>
</svg>
