<svg width="22" height="25" viewBox="0 0 22 25" fill="none" xmlns="http://www.w3.org/2000/svg">
<path d="M21.0958 5.89957C20.9701 5.77391 20.8445 5.77391 20.5932 5.77391C20.2162 5.77391 19.9649 5.77391 19.5879 5.64826C17.4518 5.14564 15.9439 3.51213 15.8183 1.37601V0.873389C15.8183 0.496426 15.567 0.245117 15.19 0.245117H11.2947C10.9178 0.245117 10.6665 0.496426 10.6665 0.873389V16.5802C10.6665 18.088 9.40992 19.2189 8.02772 19.2189C7.14814 19.2189 6.39421 18.842 5.89159 18.2137C5.01201 17.0828 5.26332 15.3236 6.39421 14.4441C6.89683 14.0671 7.39945 14.0671 8.40468 14.0671C8.53033 14.0671 8.78164 14.0671 8.9073 13.9415C9.03295 13.8158 9.15861 13.6901 9.15861 13.4388V9.29224C9.15861 9.04093 8.9073 8.66397 8.65599 8.66397C6.64552 8.41266 4.63505 8.91527 3.12719 10.1718C1.74499 11.4284 0.739759 13.1875 0.48845 15.3237C0.111486 17.7111 0.991067 20.2242 2.62458 21.8577C4.13243 23.4912 6.26855 24.2451 8.27903 24.2451C10.2895 24.2451 12.3 23.4912 13.8078 21.9833C15.3157 20.4755 16.1953 18.465 16.1953 16.3289V9.41789C17.7031 10.1718 19.3366 10.6744 20.9701 10.6744C21.3471 10.6744 21.5984 10.4231 21.5984 10.0462V6.27653C21.3471 6.15088 21.2214 6.02522 21.0958 5.89957Z" fill="#2964B0"/>
</svg>
