<svg width="36" height="36" viewBox="0 0 36 36" fill="none" xmlns="http://www.w3.org/2000/svg">
<g id="Vector">
<path id="Vector_2" d="M24.5969 11.4031C24.4316 11.2364 24.235 11.1041 24.0183 11.0138C23.8016 10.9236 23.5692 10.8771 23.3344 10.8771C23.0997 10.8771 22.8673 10.9236 22.6506 11.0138C22.4339 11.1041 22.2373 11.2364 22.072 11.4031L18 15.4928L13.928 11.4031C13.5932 11.0682 13.1391 10.8801 12.6655 10.8801C12.192 10.8801 11.7379 11.0682 11.4031 11.4031C11.0682 11.7379 10.8801 12.192 10.8801 12.6655C10.8801 13.1391 11.0682 13.5932 11.4031 13.928L15.4928 18L11.4031 22.072C11.2364 22.2373 11.1041 22.4339 11.0138 22.6506C10.9236 22.8673 10.8771 23.0997 10.8771 23.3344C10.8771 23.5692 10.9236 23.8016 11.0138 24.0183C11.1041 24.235 11.2364 24.4316 11.4031 24.5969C11.5684 24.7636 11.765 24.8959 11.9817 24.9862C12.1984 25.0764 12.4308 25.1229 12.6655 25.1229C12.9003 25.1229 13.1327 25.0764 13.3494 24.9862C13.5661 24.8959 13.7627 24.7636 13.928 24.5969L18 20.5072L22.072 24.5969C22.2373 24.7636 22.4339 24.8959 22.6506 24.9862C22.8673 25.0764 23.0997 25.1229 23.3344 25.1229C23.5692 25.1229 23.8016 25.0764 24.0183 24.9862C24.235 24.8959 24.4316 24.7636 24.5969 24.5969C24.7636 24.4316 24.8959 24.235 24.9862 24.0183C25.0764 23.8016 25.1229 23.5692 25.1229 23.3344C25.1229 23.0997 25.0764 22.8673 24.9862 22.6506C24.8959 22.4339 24.7636 22.2373 24.5969 22.072L20.5072 18L24.5969 13.928C24.7636 13.7627 24.8959 13.5661 24.9862 13.3494C25.0764 13.1327 25.1229 12.9003 25.1229 12.6655C25.1229 12.4308 25.0764 12.1984 24.9862 11.9817C24.8959 11.765 24.7636 11.5684 24.5969 11.4031ZM30.5715 5.42848C28.9312 3.73017 26.9691 2.37553 24.7997 1.44362C22.6303 0.511713 20.297 0.021188 17.936 0.000671372C15.575 -0.0198452 13.2335 0.430057 11.0483 1.32413C8.86297 2.2182 6.87763 3.53853 5.20808 5.20808C3.53853 6.87763 2.2182 8.86297 1.32413 11.0483C0.430057 13.2335 -0.0198452 15.575 0.000671372 17.936C0.021188 20.297 0.511713 22.6303 1.44362 24.7997C2.37553 26.9691 3.73017 28.9312 5.42848 30.5715C7.06877 32.2698 9.03086 33.6245 11.2003 34.5564C13.3697 35.4883 15.703 35.9788 18.064 35.9993C20.425 36.0198 22.7665 35.5699 24.9517 34.6759C27.137 33.7818 29.1224 32.4615 30.7919 30.7919C32.4615 29.1224 33.7818 27.137 34.6759 24.9517C35.5699 22.7665 36.0198 20.425 35.9993 18.064C35.9788 15.703 35.4883 13.3697 34.5564 11.2003C33.6245 9.03086 32.2698 7.06877 30.5715 5.42848ZM28.0643 28.0643C25.7386 30.3927 22.6775 31.8426 19.4026 32.1671C16.1277 32.4915 12.8416 31.6705 10.1042 29.8438C7.36673 28.0172 5.34732 25.2979 4.38999 22.1493C3.43266 19.0007 3.59664 15.6175 4.85399 12.5763C6.11133 9.53499 8.38425 7.02374 11.2855 5.47038C14.1868 3.91701 17.5369 3.41762 20.765 4.0573C23.9932 4.69698 26.8997 6.43614 28.9894 8.97849C31.0791 11.5208 32.2226 14.7091 32.2252 18C32.2315 19.8693 31.8671 21.7214 31.1528 23.4489C30.4386 25.1765 29.3889 26.7452 28.0643 28.0643Z" fill="white"/>
</g>
</svg>
