<svg width="41" height="37" viewBox="0 0 41 37" fill="none" xmlns="http://www.w3.org/2000/svg">
<path d="M16.6005 36.2026H0.675234V19.0438C0.600468 16.5765 0.936916 14.2587 1.68458 12.0905C2.50701 9.92226 3.62851 8.01572 5.04907 6.37086C6.46963 4.726 8.15187 3.38021 10.0958 2.33348C12.1145 1.21198 14.2827 0.501703 16.6005 0.202637V7.60451C13.7593 8.57647 11.8154 10.0344 10.7687 11.9783C9.72196 13.8475 9.1986 16.1653 9.1986 18.9316H16.6005V36.2026ZM40.4883 36.2026H24.5631V19.0438C24.4883 16.5765 24.8248 14.2587 25.5724 12.0905C26.3949 9.92226 27.5164 8.01572 28.9369 6.37086C30.3575 4.726 32.0397 3.38021 33.9836 2.33348C36.0023 1.21198 38.1706 0.501703 40.4883 0.202637V7.60451C37.6472 8.57647 35.7033 10.0344 34.6565 11.9783C33.6098 13.8475 33.0865 16.1653 33.0865 18.9316H40.4883V36.2026Z" fill="url(#paint0_linear_2191_5491)"/>
<defs>
<linearGradient id="paint0_linear_2191_5491" x1="0.665039" y1="16.0125" x2="40.4883" y2="16.0125" gradientUnits="userSpaceOnUse">
<stop stop-color="#001540"/>
<stop offset="1" stop-color="#001540"/>
</linearGradient>
</defs>
</svg>
