<svg xmlns="http://www.w3.org/2000/svg" viewBox="0 0 454.36 84.85"><defs><style>.cls-1{fill:#273aaa;}.cls-2{fill:#050000;}</style></defs><title>logo-color</title><g id="Layer_2" data-name="Layer 2"><g id="_ÎÓÈ_1" data-name="—ÎÓÈ_1"><path class="cls-1" d="M152.23,63.18A3.9,3.9,0,0,0,148.17,60c-2.71,0-4.73,2.09-4.73,5.9s2,5.89,4.72,5.89a3.9,3.9,0,0,0,4.07-3.1h2.39A6.25,6.25,0,0,1,148.14,74c-4.07,0-7-3-7-8s3-8.06,7-8.06a6.18,6.18,0,0,1,6.48,5.32Z"/><path class="cls-1" d="M157,67.93c0-3.66,2.17-6.08,5.48-6.08s5.49,2.42,5.49,6.08S165.77,74,162.45,74,157,71.57,157,67.93Zm8.65,0c0-2.25-1-4.16-3.16-4.16s-3.18,1.91-3.18,4.16,1,4.16,3.18,4.16S165.62,70.18,165.62,67.92Z"/><path class="cls-1" d="M170.71,62h2.2v1.91h.15a3.48,3.48,0,0,1,6.36,0h.12a3.68,3.68,0,0,1,3.53-2.06c2.13,0,3.63,1.34,3.63,4v7.89h-2.29V66.09a2,2,0,0,0-2.2-2.27,2.25,2.25,0,0,0-2.36,2.44v7.5h-2.28V65.94a2,2,0,0,0-2.16-2.12A2.52,2.52,0,0,0,173,66.51v7.25h-2.29Z"/><path class="cls-1" d="M190,62h2.19v1.91h.15a3.22,3.22,0,0,1,3.2-2.06,3.18,3.18,0,0,1,3.16,2.06h.13a3.66,3.66,0,0,1,3.52-2.06c2.13,0,3.63,1.34,3.63,4v7.89h-2.29V66.09a2,2,0,0,0-2.2-2.27,2.26,2.26,0,0,0-2.36,2.44v7.5h-2.28V65.94a2,2,0,0,0-2.15-2.12,2.52,2.52,0,0,0-2.41,2.69v7.25H190Z"/><path class="cls-1" d="M216.73,62H219V73.76h-2.26v-2h-.12a3.63,3.63,0,0,1-3.51,2.19c-2.26,0-3.86-1.51-3.86-4.43V62h2.29v7.2A2.38,2.38,0,0,0,214,71.83a2.77,2.77,0,0,0,2.77-3Z"/><path class="cls-1" d="M224.61,73.76h-2.29V62h2.2v1.91h.15a3.49,3.49,0,0,1,3.47-2.06c2.4,0,4,1.52,4,4.43v7.48h-2.29V66.55a2.41,2.41,0,0,0-2.5-2.72,2.66,2.66,0,0,0-2.74,3Z"/><path class="cls-1" d="M235.14,58.82a1.45,1.45,0,1,1,1.45,1.36A1.42,1.42,0,0,1,235.14,58.82Zm.29,3.18h2.29V73.76h-2.29Z"/><path class="cls-1" d="M246.51,63.84H244.1v6.47c0,1.32.66,1.57,1.4,1.57a3.87,3.87,0,0,0,.81-.1l.41,1.89a4.48,4.48,0,0,1-1.48.24,3.06,3.06,0,0,1-3.43-3.13V63.84h-1.73V62h1.73V59.18h2.29V62h2.41Z"/><path class="cls-1" d="M249.14,77.89l.55-1.88c1.26.34,2.08.21,2.66-1.32l.28-.78L248.33,62h2.45l3,9.13h.12l3-9.13,2.47,0-4.86,13.31a3.77,3.77,0,0,1-3.77,2.81A4.24,4.24,0,0,1,249.14,77.89Z"/><path class="cls-1" d="M267.83,58.08h9.72v2h-7.36v4.78h6.66v2h-6.66v6.84h-2.36Z"/><path class="cls-1" d="M279.12,67.93c0-3.66,2.16-6.08,5.48-6.08s5.48,2.42,5.48,6.08S287.92,74,284.6,74,279.12,71.57,279.12,67.93Zm8.65,0c0-2.25-1-4.16-3.16-4.16s-3.18,1.91-3.18,4.16,1,4.16,3.18,4.16S287.77,70.18,287.77,67.92Z"/><path class="cls-1" d="M300.31,62h2.3V73.76h-2.26v-2h-.12a3.63,3.63,0,0,1-3.51,2.19c-2.26,0-3.86-1.51-3.86-4.43V62h2.29v7.2a2.38,2.38,0,0,0,2.4,2.63,2.77,2.77,0,0,0,2.76-3Z"/><path class="cls-1" d="M308.19,73.76H305.9V62h2.2v1.91h.15a3.49,3.49,0,0,1,3.47-2.06c2.4,0,4,1.52,4,4.43v7.48h-2.29V66.55a2.41,2.41,0,0,0-2.5-2.72,2.66,2.66,0,0,0-2.74,3Z"/><path class="cls-1" d="M318.5,67.9c0-3.81,2.09-6.05,4.93-6.05a3.54,3.54,0,0,1,3.38,2H327V58.08h2.29V73.76H327V71.93h-.19a3.58,3.58,0,0,1-3.4,2.06C320.56,74,318.5,71.71,318.5,67.9Zm8.49,0c0-2.46-1.07-4.09-3.07-4.09s-3.11,1.75-3.11,4.09S321.87,72,323.92,72,327,70.35,327,67.88Z"/><path class="cls-1" d="M332.18,70.44c0-2.68,2.28-3.26,4.51-3.52s3-.23,3-1.06V65.8a2,2,0,0,0-2.24-2.1,2.74,2.74,0,0,0-2.73,1.64l-2.15-.49c.76-2.15,2.72-3,4.85-3,1.87,0,4.57.68,4.57,4.1v7.81h-2.24V72.15h-.09A3.68,3.68,0,0,1,336.15,74C333.92,74,332.18,72.75,332.18,70.44Zm7.49-.92V68a9,9,0,0,1-2.84.63c-1.32.17-2.41.61-2.41,1.84s.93,1.71,2.23,1.71A2.76,2.76,0,0,0,339.67,69.52Z"/><path class="cls-1" d="M350.72,63.84h-2.41v6.47c0,1.32.66,1.57,1.41,1.57a3.75,3.75,0,0,0,.8-.1l.41,1.89a4.37,4.37,0,0,1-1.48.24A3.06,3.06,0,0,1,346,70.78V63.84H344.3V62H346V59.18h2.29V62h2.41Z"/><path class="cls-1" d="M353.18,58.82a1.45,1.45,0,1,1,1.44,1.36A1.41,1.41,0,0,1,353.18,58.82Zm.29,3.18h2.29V73.76h-2.29Z"/><path class="cls-1" d="M358.53,67.93c0-3.66,2.16-6.08,5.48-6.08s5.48,2.42,5.48,6.08S367.33,74,364,74,358.53,71.57,358.53,67.93Zm8.65,0c0-2.25-1-4.16-3.16-4.16s-3.18,1.91-3.18,4.16,1,4.16,3.18,4.16S367.18,70.18,367.18,67.92Z"/><path class="cls-1" d="M374.56,73.76h-2.29V62h2.2v1.91h.14a3.5,3.5,0,0,1,3.47-2.06c2.41,0,4,1.52,4,4.43v7.48H379.8V66.55a2.41,2.41,0,0,0-2.5-2.72,2.66,2.66,0,0,0-2.74,3Z"/><path class="cls-2" d="M142.15,13.57h24v6.21H149.69v8.49h15.23v6.21H149.69V43h16.54v6.21H142.15Z"/><path class="cls-2" d="M179.44,49.19H172V22.47h7.06v4.72h.31c1.2-3.11,4.07-5.06,8-5.06,5.57,0,9.22,3.82,9.22,10.05v17h-7.41V33.5c0-3.27-1.77-5.22-4.75-5.22s-5,2-5.06,5.47Z"/><path class="cls-2" d="M217.09,49.19h-8.35L199.4,22.47h7.83l5.55,19.12h.27l5.54-19.12h7.84Z"/><path class="cls-2" d="M230,15.27a4,4,0,0,1,8,0,4,4,0,0,1-8,0Zm.28,7.2h7.41V49.19h-7.41Z"/><path class="cls-2" d="M259,30.51c-.37-1.72-1.9-3.13-4.48-3.13-2.29,0-4.1,1-4.08,2.64,0,1.29.9,2.14,3.39,2.68l4.83,1c5.19,1.06,7.71,3.37,7.73,7.23,0,5.27-5,8.81-11.9,8.81-7.08,0-11.43-3.15-12.12-8.27l7.28-.38c.46,2.17,2.21,3.31,4.86,3.31s4.31-1.14,4.35-2.72c0-1.34-1.1-2.19-3.43-2.66l-4.63-.92c-5.22-1-7.74-3.64-7.72-7.64,0-5.15,4.49-8.31,11.32-8.31s10.72,3,11.38,8Z"/><path class="cls-2" d="M270.81,15.27a4,4,0,0,1,8,0,4,4,0,0,1-8,0Zm.27,7.2h7.41V49.19h-7.41Z"/><path class="cls-2" d="M283.33,35.94c0-8.28,5.05-13.81,13.15-13.81s13.15,5.53,13.15,13.81-5,13.78-13.15,13.78S283.33,44.17,283.33,35.94Zm18.77,0c0-4.67-1.91-8.11-5.58-8.11s-5.65,3.44-5.65,8.11S292.78,44,296.52,44,302.1,40.55,302.1,35.89Z"/><path class="cls-2" d="M321.89,49.19h-7.41V22.47h7.06v4.72h.31c1.2-3.11,4.07-5.06,8-5.06,5.57,0,9.22,3.82,9.22,10.05v17H331.7V33.5c0-3.27-1.77-5.22-4.75-5.22s-5,2-5.06,5.47Z"/><path class="cls-2" d="M341.5,13.57h29.26v6.21H359.85V49.19h-7.44V19.78H341.5Z"/><path class="cls-2" d="M370.49,36c0-8.25,5.1-13.83,13-13.83,7.06,0,12.56,4.48,12.56,13.56v2h-18.2v0c0,4,2.35,6.43,6.06,6.43,2.47,0,4.38-1.06,5.13-3.09l6.85.45c-1,5-5.5,8.18-12.11,8.18C375.52,49.72,370.49,44.43,370.49,36ZM389,33.14a5.26,5.26,0,0,0-5.46-5.48,5.64,5.64,0,0,0-5.76,5.48Z"/><path class="cls-2" d="M399.77,35.94c0-8.19,5-13.81,13.12-13.81,7,0,11.65,4.05,12,10.22h-7c-.4-2.66-2.14-4.45-4.85-4.45-3.44,0-5.71,2.89-5.71,7.93s2.25,8,5.71,8c2.54,0,4.42-1.6,4.85-4.45h7c-.35,6.14-4.82,10.32-11.94,10.32C404.7,49.72,399.77,44.06,399.77,35.94Z"/><path class="cls-2" d="M437,49.19h-7.41V13.57h7.2V27.19h.31c1.22-3.15,3.94-5.06,8-5.06,5.56,0,9.25,3.79,9.23,10.05v17H447V33.5c0-3.28-1.75-5.22-4.76-5.22s-5.13,2-5.15,5.47Z"/><g id="noun_Infinity_1689695-Copy-3" data-name="noun Infinity 1689695-Copy-3"><g id="noun_Infinity_1689695" data-name="noun Infinity 1689695"><path id="Shape" class="cls-1" d="M84.52,0A42,42,0,0,0,63.39,5.69,41.85,41.85,0,0,0,42.26,0a42.43,42.43,0,0,0,0,84.85,42,42,0,0,0,21.13-5.69,42.22,42.22,0,0,0,63.39-36.73A42.34,42.34,0,0,0,84.52,0ZM65.86,77.6c.12-.07.22-.16.34-.24C66.08,77.44,66,77.53,65.86,77.6Zm18.66-3.33A31.49,31.49,0,0,1,72.6,71.94a42.54,42.54,0,0,0,6.64-50.06A21.05,21.05,0,0,0,70,27,31.7,31.7,0,1,1,42.26,10.58a31.5,31.5,0,0,1,11.92,2.34A42.53,42.53,0,0,0,47.54,63a21.05,21.05,0,0,0,9.22-5.13A31.7,31.7,0,1,1,84.52,74.27Z"/></g></g></g></g></svg>