<svg width="245" height="375" viewBox="0 0 245 375" fill="none" xmlns="http://www.w3.org/2000/svg">
<g clip-path="url(#clip0_2305_571)">
<path d="M18.0889 9.13591C20.5691 9.13591 22.5797 7.12657 22.5797 4.64791C22.5797 2.16926 20.5691 0.159912 18.0889 0.159912C15.6087 0.159912 13.5981 2.16926 13.5981 4.64791C13.5981 7.12657 15.6087 9.13591 18.0889 9.13591Z" fill="#2964B0" fill-opacity="0.06"/>
<path d="M31.1871 9.13591C33.6673 9.13591 35.6779 7.12657 35.6779 4.64791C35.6779 2.16926 33.6673 0.159912 31.1871 0.159912C28.7069 0.159912 26.6963 2.16926 26.6963 4.64791C26.6963 7.12657 28.7069 9.13591 31.1871 9.13591Z" fill="#2964B0" fill-opacity="0.06"/>
<path d="M44.2853 9.13591C46.7655 9.13591 48.7761 7.12657 48.7761 4.64791C48.7761 2.16926 46.7655 0.159912 44.2853 0.159912C41.8051 0.159912 39.7945 2.16926 39.7945 4.64791C39.7945 7.12657 41.8051 9.13591 44.2853 9.13591Z" fill="#2964B0" fill-opacity="0.06"/>
<path d="M57.3834 9.13591C59.8636 9.13591 61.8742 7.12657 61.8742 4.64791C61.8742 2.16926 59.8636 0.159912 57.3834 0.159912C54.9032 0.159912 52.8926 2.16926 52.8926 4.64791C52.8926 7.12657 54.9032 9.13591 57.3834 9.13591Z" fill="#2964B0" fill-opacity="0.06"/>
<path d="M70.4816 9.13591C72.9618 9.13591 74.9724 7.12657 74.9724 4.64791C74.9724 2.16926 72.9618 0.159912 70.4816 0.159912C68.0014 0.159912 65.9908 2.16926 65.9908 4.64791C65.9908 7.12657 68.0014 9.13591 70.4816 9.13591Z" fill="#2964B0" fill-opacity="0.06"/>
<path d="M83.2055 9.13591C85.6857 9.13591 87.6963 7.12657 87.6963 4.64791C87.6963 2.16926 85.6857 0.159912 83.2055 0.159912C80.7253 0.159912 78.7147 2.16926 78.7147 4.64791C78.7147 7.12657 80.7253 9.13591 83.2055 9.13591Z" fill="#2964B0" fill-opacity="0.06"/>
<path d="M96.3037 9.13591C98.7839 9.13591 100.794 7.12657 100.794 4.64791C100.794 2.16926 98.7839 0.159912 96.3037 0.159912C93.8235 0.159912 91.8129 2.16926 91.8129 4.64791C91.8129 7.12657 93.8235 9.13591 96.3037 9.13591Z" fill="#2964B0" fill-opacity="0.06"/>
<path d="M109.402 9.13591C111.882 9.13591 113.893 7.12657 113.893 4.64791C113.893 2.16926 111.882 0.159912 109.402 0.159912C106.922 0.159912 104.911 2.16926 104.911 4.64791C104.911 7.12657 106.922 9.13591 109.402 9.13591Z" fill="#2964B0" fill-opacity="0.06"/>
<path d="M122.5 9.13591C124.98 9.13591 126.991 7.12657 126.991 4.64791C126.991 2.16926 124.98 0.159912 122.5 0.159912C120.02 0.159912 118.009 2.16926 118.009 4.64791C118.009 7.12657 120.02 9.13591 122.5 9.13591Z" fill="#2964B0" fill-opacity="0.06"/>
<path d="M135.598 9.13591C138.078 9.13591 140.089 7.12657 140.089 4.64791C140.089 2.16926 138.078 0.159912 135.598 0.159912C133.118 0.159912 131.107 2.16926 131.107 4.64791C131.107 7.12657 133.118 9.13591 135.598 9.13591Z" fill="#2964B0" fill-opacity="0.06"/>
<path d="M148.696 9.13591C151.177 9.13591 153.187 7.12657 153.187 4.64791C153.187 2.16926 151.177 0.159912 148.696 0.159912C146.216 0.159912 144.206 2.16926 144.206 4.64791C144.206 7.12657 146.216 9.13591 148.696 9.13591Z" fill="#2964B0" fill-opacity="0.06"/>
<path d="M161.795 9.13591C164.275 9.13591 166.285 7.12657 166.285 4.64791C166.285 2.16926 164.275 0.159912 161.795 0.159912C159.314 0.159912 157.304 2.16926 157.304 4.64791C157.304 7.12657 159.314 9.13591 161.795 9.13591Z" fill="#2964B0" fill-opacity="0.06"/>
<path d="M174.518 9.13591C176.999 9.13591 179.009 7.12657 179.009 4.64791C179.009 2.16926 176.999 0.159912 174.518 0.159912C172.038 0.159912 170.028 2.16926 170.028 4.64791C170.028 7.12657 172.038 9.13591 174.518 9.13591Z" fill="#2964B0" fill-opacity="0.06"/>
<path d="M18.0889 22.226C20.5691 22.226 22.5797 20.2167 22.5797 17.738C22.5797 15.2593 20.5691 13.25 18.0889 13.25C15.6087 13.25 13.5981 15.2593 13.5981 17.738C13.5981 20.2167 15.6087 22.226 18.0889 22.226Z" fill="#2964B0" fill-opacity="0.06"/>
<path d="M31.1871 22.226C33.6673 22.226 35.6779 20.2167 35.6779 17.738C35.6779 15.2593 33.6673 13.25 31.1871 13.25C28.7069 13.25 26.6963 15.2593 26.6963 17.738C26.6963 20.2167 28.7069 22.226 31.1871 22.226Z" fill="#2964B0" fill-opacity="0.06"/>
<path d="M44.2853 22.226C46.7655 22.226 48.7761 20.2167 48.7761 17.738C48.7761 15.2593 46.7655 13.25 44.2853 13.25C41.8051 13.25 39.7945 15.2593 39.7945 17.738C39.7945 20.2167 41.8051 22.226 44.2853 22.226Z" fill="#2964B0" fill-opacity="0.06"/>
<path d="M57.3834 22.226C59.8636 22.226 61.8742 20.2167 61.8742 17.738C61.8742 15.2593 59.8636 13.25 57.3834 13.25C54.9032 13.25 52.8926 15.2593 52.8926 17.738C52.8926 20.2167 54.9032 22.226 57.3834 22.226Z" fill="#2964B0" fill-opacity="0.06"/>
<path d="M70.4816 22.226C72.9618 22.226 74.9724 20.2167 74.9724 17.738C74.9724 15.2593 72.9618 13.25 70.4816 13.25C68.0014 13.25 65.9908 15.2593 65.9908 17.738C65.9908 20.2167 68.0014 22.226 70.4816 22.226Z" fill="#2964B0" fill-opacity="0.06"/>
<path d="M83.2055 22.226C85.6857 22.226 87.6963 20.2167 87.6963 17.738C87.6963 15.2593 85.6857 13.25 83.2055 13.25C80.7253 13.25 78.7147 15.2593 78.7147 17.738C78.7147 20.2167 80.7253 22.226 83.2055 22.226Z" fill="#2964B0" fill-opacity="0.06"/>
<path d="M96.3037 22.226C98.7839 22.226 100.794 20.2167 100.794 17.738C100.794 15.2593 98.7839 13.25 96.3037 13.25C93.8235 13.25 91.8129 15.2593 91.8129 17.738C91.8129 20.2167 93.8235 22.226 96.3037 22.226Z" fill="#2964B0" fill-opacity="0.06"/>
<path d="M109.402 22.226C111.882 22.226 113.893 20.2167 113.893 17.738C113.893 15.2593 111.882 13.25 109.402 13.25C106.922 13.25 104.911 15.2593 104.911 17.738C104.911 20.2167 106.922 22.226 109.402 22.226Z" fill="#2964B0" fill-opacity="0.06"/>
<path d="M122.5 22.226C124.98 22.226 126.991 20.2167 126.991 17.738C126.991 15.2593 124.98 13.25 122.5 13.25C120.02 13.25 118.009 15.2593 118.009 17.738C118.009 20.2167 120.02 22.226 122.5 22.226Z" fill="#2964B0" fill-opacity="0.06"/>
<path d="M135.598 22.226C138.078 22.226 140.089 20.2167 140.089 17.738C140.089 15.2593 138.078 13.25 135.598 13.25C133.118 13.25 131.107 15.2593 131.107 17.738C131.107 20.2167 133.118 22.226 135.598 22.226Z" fill="#2964B0" fill-opacity="0.06"/>
<path d="M148.696 22.226C151.177 22.226 153.187 20.2167 153.187 17.738C153.187 15.2593 151.177 13.25 148.696 13.25C146.216 13.25 144.206 15.2593 144.206 17.738C144.206 20.2167 146.216 22.226 148.696 22.226Z" fill="#2964B0" fill-opacity="0.06"/>
<path d="M161.795 22.226C164.275 22.226 166.285 20.2167 166.285 17.738C166.285 15.2593 164.275 13.25 161.795 13.25C159.314 13.25 157.304 15.2593 157.304 17.738C157.304 20.2167 159.314 22.226 161.795 22.226Z" fill="#2964B0" fill-opacity="0.06"/>
<path d="M174.518 22.226C176.999 22.226 179.009 20.2167 179.009 17.738C179.009 15.2593 176.999 13.25 174.518 13.25C172.038 13.25 170.028 15.2593 170.028 17.738C170.028 20.2167 172.038 22.226 174.518 22.226Z" fill="#2964B0" fill-opacity="0.06"/>
<path d="M18.0889 35.3158C20.5691 35.3158 22.5797 33.3065 22.5797 30.8278C22.5797 28.3492 20.5691 26.3398 18.0889 26.3398C15.6087 26.3398 13.5981 28.3492 13.5981 30.8278C13.5981 33.3065 15.6087 35.3158 18.0889 35.3158Z" fill="#2964B0" fill-opacity="0.06"/>
<path d="M31.1871 35.3158C33.6673 35.3158 35.6779 33.3065 35.6779 30.8278C35.6779 28.3492 33.6673 26.3398 31.1871 26.3398C28.7069 26.3398 26.6963 28.3492 26.6963 30.8278C26.6963 33.3065 28.7069 35.3158 31.1871 35.3158Z" fill="#2964B0" fill-opacity="0.06"/>
<path d="M44.2853 35.3158C46.7655 35.3158 48.7761 33.3065 48.7761 30.8278C48.7761 28.3492 46.7655 26.3398 44.2853 26.3398C41.8051 26.3398 39.7945 28.3492 39.7945 30.8278C39.7945 33.3065 41.8051 35.3158 44.2853 35.3158Z" fill="#2964B0" fill-opacity="0.06"/>
<path d="M57.3834 35.3158C59.8636 35.3158 61.8742 33.3065 61.8742 30.8278C61.8742 28.3492 59.8636 26.3398 57.3834 26.3398C54.9032 26.3398 52.8926 28.3492 52.8926 30.8278C52.8926 33.3065 54.9032 35.3158 57.3834 35.3158Z" fill="#2964B0" fill-opacity="0.06"/>
<path d="M70.4816 35.3158C72.9618 35.3158 74.9724 33.3065 74.9724 30.8278C74.9724 28.3492 72.9618 26.3398 70.4816 26.3398C68.0014 26.3398 65.9908 28.3492 65.9908 30.8278C65.9908 33.3065 68.0014 35.3158 70.4816 35.3158Z" fill="#2964B0" fill-opacity="0.06"/>
<path d="M83.2055 35.3158C85.6857 35.3158 87.6963 33.3065 87.6963 30.8278C87.6963 28.3492 85.6857 26.3398 83.2055 26.3398C80.7253 26.3398 78.7147 28.3492 78.7147 30.8278C78.7147 33.3065 80.7253 35.3158 83.2055 35.3158Z" fill="#2964B0" fill-opacity="0.06"/>
<path d="M96.3037 35.3158C98.7839 35.3158 100.794 33.3065 100.794 30.8278C100.794 28.3492 98.7839 26.3398 96.3037 26.3398C93.8235 26.3398 91.8129 28.3492 91.8129 30.8278C91.8129 33.3065 93.8235 35.3158 96.3037 35.3158Z" fill="#2964B0" fill-opacity="0.06"/>
<path d="M109.402 35.3158C111.882 35.3158 113.893 33.3065 113.893 30.8278C113.893 28.3492 111.882 26.3398 109.402 26.3398C106.922 26.3398 104.911 28.3492 104.911 30.8278C104.911 33.3065 106.922 35.3158 109.402 35.3158Z" fill="#2964B0" fill-opacity="0.06"/>
<path d="M122.5 35.3158C124.98 35.3158 126.991 33.3065 126.991 30.8278C126.991 28.3492 124.98 26.3398 122.5 26.3398C120.02 26.3398 118.009 28.3492 118.009 30.8278C118.009 33.3065 120.02 35.3158 122.5 35.3158Z" fill="#2964B0" fill-opacity="0.06"/>
<path d="M135.598 35.3158C138.078 35.3158 140.089 33.3065 140.089 30.8278C140.089 28.3492 138.078 26.3398 135.598 26.3398C133.118 26.3398 131.107 28.3492 131.107 30.8278C131.107 33.3065 133.118 35.3158 135.598 35.3158Z" fill="#2964B0" fill-opacity="0.06"/>
<path d="M148.696 35.3158C151.177 35.3158 153.187 33.3065 153.187 30.8278C153.187 28.3492 151.177 26.3398 148.696 26.3398C146.216 26.3398 144.206 28.3492 144.206 30.8278C144.206 33.3065 146.216 35.3158 148.696 35.3158Z" fill="#2964B0" fill-opacity="0.06"/>
<path d="M161.795 35.3158C164.275 35.3158 166.285 33.3065 166.285 30.8278C166.285 28.3492 164.275 26.3398 161.795 26.3398C159.314 26.3398 157.304 28.3492 157.304 30.8278C157.304 33.3065 159.314 35.3158 161.795 35.3158Z" fill="#2964B0" fill-opacity="0.06"/>
<path d="M174.518 35.3158C176.999 35.3158 179.009 33.3065 179.009 30.8278C179.009 28.3492 176.999 26.3398 174.518 26.3398C172.038 26.3398 170.028 28.3492 170.028 30.8278C170.028 33.3065 172.038 35.3158 174.518 35.3158Z" fill="#2964B0" fill-opacity="0.06"/>
<path d="M18.0889 48.4059C20.5691 48.4059 22.5797 46.3966 22.5797 43.9179C22.5797 41.4393 20.5691 39.4299 18.0889 39.4299C15.6087 39.4299 13.5981 41.4393 13.5981 43.9179C13.5981 46.3966 15.6087 48.4059 18.0889 48.4059Z" fill="#2964B0" fill-opacity="0.06"/>
<path d="M31.1871 48.4059C33.6673 48.4059 35.6779 46.3966 35.6779 43.9179C35.6779 41.4393 33.6673 39.4299 31.1871 39.4299C28.7069 39.4299 26.6963 41.4393 26.6963 43.9179C26.6963 46.3966 28.7069 48.4059 31.1871 48.4059Z" fill="#2964B0" fill-opacity="0.06"/>
<path d="M44.2853 48.4059C46.7655 48.4059 48.7761 46.3966 48.7761 43.9179C48.7761 41.4393 46.7655 39.4299 44.2853 39.4299C41.8051 39.4299 39.7945 41.4393 39.7945 43.9179C39.7945 46.3966 41.8051 48.4059 44.2853 48.4059Z" fill="#2964B0" fill-opacity="0.06"/>
<path d="M57.3834 48.4059C59.8636 48.4059 61.8742 46.3966 61.8742 43.9179C61.8742 41.4393 59.8636 39.4299 57.3834 39.4299C54.9032 39.4299 52.8926 41.4393 52.8926 43.9179C52.8926 46.3966 54.9032 48.4059 57.3834 48.4059Z" fill="#2964B0" fill-opacity="0.06"/>
<path d="M70.4816 48.4059C72.9618 48.4059 74.9724 46.3966 74.9724 43.9179C74.9724 41.4393 72.9618 39.4299 70.4816 39.4299C68.0014 39.4299 65.9908 41.4393 65.9908 43.9179C65.9908 46.3966 68.0014 48.4059 70.4816 48.4059Z" fill="#2964B0" fill-opacity="0.06"/>
<path d="M83.2055 48.4059C85.6857 48.4059 87.6963 46.3966 87.6963 43.9179C87.6963 41.4393 85.6857 39.4299 83.2055 39.4299C80.7253 39.4299 78.7147 41.4393 78.7147 43.9179C78.7147 46.3966 80.7253 48.4059 83.2055 48.4059Z" fill="#2964B0" fill-opacity="0.06"/>
<path d="M96.3037 48.4059C98.7839 48.4059 100.794 46.3966 100.794 43.9179C100.794 41.4393 98.7839 39.4299 96.3037 39.4299C93.8235 39.4299 91.8129 41.4393 91.8129 43.9179C91.8129 46.3966 93.8235 48.4059 96.3037 48.4059Z" fill="#2964B0" fill-opacity="0.06"/>
<path d="M109.402 48.4059C111.882 48.4059 113.893 46.3966 113.893 43.9179C113.893 41.4393 111.882 39.4299 109.402 39.4299C106.922 39.4299 104.911 41.4393 104.911 43.9179C104.911 46.3966 106.922 48.4059 109.402 48.4059Z" fill="#2964B0" fill-opacity="0.06"/>
<path d="M122.5 48.4059C124.98 48.4059 126.991 46.3966 126.991 43.9179C126.991 41.4393 124.98 39.4299 122.5 39.4299C120.02 39.4299 118.009 41.4393 118.009 43.9179C118.009 46.3966 120.02 48.4059 122.5 48.4059Z" fill="#2964B0" fill-opacity="0.06"/>
<path d="M135.598 48.4059C138.078 48.4059 140.089 46.3966 140.089 43.9179C140.089 41.4393 138.078 39.4299 135.598 39.4299C133.118 39.4299 131.107 41.4393 131.107 43.9179C131.107 46.3966 133.118 48.4059 135.598 48.4059Z" fill="#2964B0" fill-opacity="0.06"/>
<path d="M148.696 48.4059C151.177 48.4059 153.187 46.3966 153.187 43.9179C153.187 41.4393 151.177 39.4299 148.696 39.4299C146.216 39.4299 144.206 41.4393 144.206 43.9179C144.206 46.3966 146.216 48.4059 148.696 48.4059Z" fill="#2964B0" fill-opacity="0.06"/>
<path d="M161.795 48.4059C164.275 48.4059 166.285 46.3966 166.285 43.9179C166.285 41.4393 164.275 39.4299 161.795 39.4299C159.314 39.4299 157.304 41.4393 157.304 43.9179C157.304 46.3966 159.314 48.4059 161.795 48.4059Z" fill="#2964B0" fill-opacity="0.06"/>
<path d="M174.518 48.4059C176.999 48.4059 179.009 46.3966 179.009 43.9179C179.009 41.4393 176.999 39.4299 174.518 39.4299C172.038 39.4299 170.028 41.4393 170.028 43.9179C170.028 46.3966 172.038 48.4059 174.518 48.4059Z" fill="#2964B0" fill-opacity="0.06"/>
<path d="M18.0889 61.496C20.5691 61.496 22.5797 59.4867 22.5797 57.008C22.5797 54.5294 20.5691 52.52 18.0889 52.52C15.6087 52.52 13.5981 54.5294 13.5981 57.008C13.5981 59.4867 15.6087 61.496 18.0889 61.496Z" fill="#2964B0" fill-opacity="0.06"/>
<path d="M31.1871 61.496C33.6673 61.496 35.6779 59.4867 35.6779 57.008C35.6779 54.5294 33.6673 52.52 31.1871 52.52C28.7069 52.52 26.6963 54.5294 26.6963 57.008C26.6963 59.4867 28.7069 61.496 31.1871 61.496Z" fill="#2964B0" fill-opacity="0.06"/>
<path d="M44.2853 61.496C46.7655 61.496 48.7761 59.4867 48.7761 57.008C48.7761 54.5294 46.7655 52.52 44.2853 52.52C41.8051 52.52 39.7945 54.5294 39.7945 57.008C39.7945 59.4867 41.8051 61.496 44.2853 61.496Z" fill="#2964B0" fill-opacity="0.06"/>
<path d="M57.3834 61.496C59.8636 61.496 61.8742 59.4867 61.8742 57.008C61.8742 54.5294 59.8636 52.52 57.3834 52.52C54.9032 52.52 52.8926 54.5294 52.8926 57.008C52.8926 59.4867 54.9032 61.496 57.3834 61.496Z" fill="#2964B0" fill-opacity="0.06"/>
<path d="M70.4816 61.496C72.9618 61.496 74.9724 59.4867 74.9724 57.008C74.9724 54.5294 72.9618 52.52 70.4816 52.52C68.0014 52.52 65.9908 54.5294 65.9908 57.008C65.9908 59.4867 68.0014 61.496 70.4816 61.496Z" fill="#2964B0" fill-opacity="0.06"/>
<path d="M83.2055 61.496C85.6857 61.496 87.6963 59.4867 87.6963 57.008C87.6963 54.5294 85.6857 52.52 83.2055 52.52C80.7253 52.52 78.7147 54.5294 78.7147 57.008C78.7147 59.4867 80.7253 61.496 83.2055 61.496Z" fill="#2964B0" fill-opacity="0.06"/>
<path d="M96.3037 61.496C98.7839 61.496 100.794 59.4867 100.794 57.008C100.794 54.5294 98.7839 52.52 96.3037 52.52C93.8235 52.52 91.8129 54.5294 91.8129 57.008C91.8129 59.4867 93.8235 61.496 96.3037 61.496Z" fill="#2964B0" fill-opacity="0.06"/>
<path d="M109.402 61.496C111.882 61.496 113.893 59.4867 113.893 57.008C113.893 54.5294 111.882 52.52 109.402 52.52C106.922 52.52 104.911 54.5294 104.911 57.008C104.911 59.4867 106.922 61.496 109.402 61.496Z" fill="#2964B0" fill-opacity="0.06"/>
<path d="M122.5 61.496C124.98 61.496 126.991 59.4867 126.991 57.008C126.991 54.5294 124.98 52.52 122.5 52.52C120.02 52.52 118.009 54.5294 118.009 57.008C118.009 59.4867 120.02 61.496 122.5 61.496Z" fill="#2964B0" fill-opacity="0.06"/>
<path d="M135.598 61.496C138.078 61.496 140.089 59.4867 140.089 57.008C140.089 54.5294 138.078 52.52 135.598 52.52C133.118 52.52 131.107 54.5294 131.107 57.008C131.107 59.4867 133.118 61.496 135.598 61.496Z" fill="#2964B0" fill-opacity="0.06"/>
<path d="M148.696 61.496C151.177 61.496 153.187 59.4867 153.187 57.008C153.187 54.5294 151.177 52.52 148.696 52.52C146.216 52.52 144.206 54.5294 144.206 57.008C144.206 59.4867 146.216 61.496 148.696 61.496Z" fill="#2964B0" fill-opacity="0.06"/>
<path d="M161.795 61.496C164.275 61.496 166.285 59.4867 166.285 57.008C166.285 54.5294 164.275 52.52 161.795 52.52C159.314 52.52 157.304 54.5294 157.304 57.008C157.304 59.4867 159.314 61.496 161.795 61.496Z" fill="#2964B0" fill-opacity="0.06"/>
<path d="M174.518 61.496C176.999 61.496 179.009 59.4867 179.009 57.008C179.009 54.5294 176.999 52.52 174.518 52.52C172.038 52.52 170.028 54.5294 170.028 57.008C170.028 59.4867 172.038 61.496 174.518 61.496Z" fill="#2964B0" fill-opacity="0.06"/>
<path d="M187.617 61.496C190.097 61.496 192.107 59.4867 192.107 57.008C192.107 54.5294 190.097 52.52 187.617 52.52C185.136 52.52 183.126 54.5294 183.126 57.008C183.126 59.4867 185.136 61.496 187.617 61.496Z" fill="#2964B0" fill-opacity="0.06"/>
<path d="M18.0889 74.2118C20.5691 74.2118 22.5797 72.2025 22.5797 69.7238C22.5797 67.2452 20.5691 65.2358 18.0889 65.2358C15.6087 65.2358 13.5981 67.2452 13.5981 69.7238C13.5981 72.2025 15.6087 74.2118 18.0889 74.2118Z" fill="#2964B0" fill-opacity="0.06"/>
<path d="M31.1871 74.2118C33.6673 74.2118 35.6779 72.2025 35.6779 69.7238C35.6779 67.2452 33.6673 65.2358 31.1871 65.2358C28.7069 65.2358 26.6963 67.2452 26.6963 69.7238C26.6963 72.2025 28.7069 74.2118 31.1871 74.2118Z" fill="#2964B0" fill-opacity="0.06"/>
<path d="M44.2853 74.2118C46.7655 74.2118 48.7761 72.2025 48.7761 69.7238C48.7761 67.2452 46.7655 65.2358 44.2853 65.2358C41.8051 65.2358 39.7945 67.2452 39.7945 69.7238C39.7945 72.2025 41.8051 74.2118 44.2853 74.2118Z" fill="#2964B0" fill-opacity="0.06"/>
<path d="M57.3834 74.2118C59.8636 74.2118 61.8742 72.2025 61.8742 69.7238C61.8742 67.2452 59.8636 65.2358 57.3834 65.2358C54.9032 65.2358 52.8926 67.2452 52.8926 69.7238C52.8926 72.2025 54.9032 74.2118 57.3834 74.2118Z" fill="#2964B0" fill-opacity="0.06"/>
<path d="M70.4816 74.2118C72.9618 74.2118 74.9724 72.2025 74.9724 69.7238C74.9724 67.2452 72.9618 65.2358 70.4816 65.2358C68.0014 65.2358 65.9908 67.2452 65.9908 69.7238C65.9908 72.2025 68.0014 74.2118 70.4816 74.2118Z" fill="#2964B0" fill-opacity="0.06"/>
<path d="M83.2055 74.2118C85.6857 74.2118 87.6963 72.2025 87.6963 69.7238C87.6963 67.2452 85.6857 65.2358 83.2055 65.2358C80.7253 65.2358 78.7147 67.2452 78.7147 69.7238C78.7147 72.2025 80.7253 74.2118 83.2055 74.2118Z" fill="#2964B0" fill-opacity="0.06"/>
<path d="M96.3037 74.2118C98.7839 74.2118 100.794 72.2025 100.794 69.7238C100.794 67.2452 98.7839 65.2358 96.3037 65.2358C93.8235 65.2358 91.8129 67.2452 91.8129 69.7238C91.8129 72.2025 93.8235 74.2118 96.3037 74.2118Z" fill="#2964B0" fill-opacity="0.06"/>
<path d="M109.402 74.2118C111.882 74.2118 113.893 72.2025 113.893 69.7238C113.893 67.2452 111.882 65.2358 109.402 65.2358C106.922 65.2358 104.911 67.2452 104.911 69.7238C104.911 72.2025 106.922 74.2118 109.402 74.2118Z" fill="#2964B0" fill-opacity="0.06"/>
<path d="M122.5 74.2118C124.98 74.2118 126.991 72.2025 126.991 69.7238C126.991 67.2452 124.98 65.2358 122.5 65.2358C120.02 65.2358 118.009 67.2452 118.009 69.7238C118.009 72.2025 120.02 74.2118 122.5 74.2118Z" fill="#2964B0" fill-opacity="0.06"/>
<path d="M135.598 74.2118C138.078 74.2118 140.089 72.2025 140.089 69.7238C140.089 67.2452 138.078 65.2358 135.598 65.2358C133.118 65.2358 131.107 67.2452 131.107 69.7238C131.107 72.2025 133.118 74.2118 135.598 74.2118Z" fill="#2964B0" fill-opacity="0.06"/>
<path d="M148.696 74.2118C151.177 74.2118 153.187 72.2025 153.187 69.7238C153.187 67.2452 151.177 65.2358 148.696 65.2358C146.216 65.2358 144.206 67.2452 144.206 69.7238C144.206 72.2025 146.216 74.2118 148.696 74.2118Z" fill="#2964B0" fill-opacity="0.06"/>
<path d="M161.795 74.2118C164.275 74.2118 166.285 72.2025 166.285 69.7238C166.285 67.2452 164.275 65.2358 161.795 65.2358C159.314 65.2358 157.304 67.2452 157.304 69.7238C157.304 72.2025 159.314 74.2118 161.795 74.2118Z" fill="#2964B0" fill-opacity="0.06"/>
<path d="M178.964 70.4466C179.362 68 177.699 65.6947 175.251 65.2975C172.803 64.9004 170.496 66.5618 170.099 69.0085C169.701 71.4551 171.364 73.7604 173.812 74.1576C176.26 74.5547 178.567 72.8933 178.964 70.4466Z" fill="#2964B0" fill-opacity="0.06"/>
<path d="M187.617 74.2118C190.097 74.2118 192.107 72.2025 192.107 69.7238C192.107 67.2452 190.097 65.2358 187.617 65.2358C185.136 65.2358 183.126 67.2452 183.126 69.7238C183.126 72.2025 185.136 74.2118 187.617 74.2118Z" fill="#2964B0" fill-opacity="0.06"/>
<path d="M18.0889 87.3019C20.5691 87.3019 22.5797 85.2926 22.5797 82.8139C22.5797 80.3353 20.5691 78.3259 18.0889 78.3259C15.6087 78.3259 13.5981 80.3353 13.5981 82.8139C13.5981 85.2926 15.6087 87.3019 18.0889 87.3019Z" fill="#2964B0" fill-opacity="0.06"/>
<path d="M31.1871 87.3019C33.6673 87.3019 35.6779 85.2926 35.6779 82.8139C35.6779 80.3353 33.6673 78.3259 31.1871 78.3259C28.7069 78.3259 26.6963 80.3353 26.6963 82.8139C26.6963 85.2926 28.7069 87.3019 31.1871 87.3019Z" fill="#2964B0" fill-opacity="0.06"/>
<path d="M44.2853 87.3019C46.7655 87.3019 48.7761 85.2926 48.7761 82.8139C48.7761 80.3353 46.7655 78.3259 44.2853 78.3259C41.8051 78.3259 39.7945 80.3353 39.7945 82.8139C39.7945 85.2926 41.8051 87.3019 44.2853 87.3019Z" fill="#2964B0" fill-opacity="0.06"/>
<path d="M57.3834 87.3019C59.8636 87.3019 61.8742 85.2926 61.8742 82.8139C61.8742 80.3353 59.8636 78.3259 57.3834 78.3259C54.9032 78.3259 52.8926 80.3353 52.8926 82.8139C52.8926 85.2926 54.9032 87.3019 57.3834 87.3019Z" fill="#2964B0" fill-opacity="0.06"/>
<path d="M70.4816 87.3019C72.9618 87.3019 74.9724 85.2926 74.9724 82.8139C74.9724 80.3353 72.9618 78.3259 70.4816 78.3259C68.0014 78.3259 65.9908 80.3353 65.9908 82.8139C65.9908 85.2926 68.0014 87.3019 70.4816 87.3019Z" fill="#2964B0" fill-opacity="0.06"/>
<path d="M83.2055 87.3019C85.6857 87.3019 87.6963 85.2926 87.6963 82.8139C87.6963 80.3353 85.6857 78.3259 83.2055 78.3259C80.7253 78.3259 78.7147 80.3353 78.7147 82.8139C78.7147 85.2926 80.7253 87.3019 83.2055 87.3019Z" fill="#2964B0" fill-opacity="0.06"/>
<path d="M96.3037 87.3019C98.7839 87.3019 100.794 85.2926 100.794 82.8139C100.794 80.3353 98.7839 78.3259 96.3037 78.3259C93.8235 78.3259 91.8129 80.3353 91.8129 82.8139C91.8129 85.2926 93.8235 87.3019 96.3037 87.3019Z" fill="#2964B0" fill-opacity="0.06"/>
<path d="M109.402 87.3019C111.882 87.3019 113.893 85.2926 113.893 82.8139C113.893 80.3353 111.882 78.3259 109.402 78.3259C106.922 78.3259 104.911 80.3353 104.911 82.8139C104.911 85.2926 106.922 87.3019 109.402 87.3019Z" fill="#2964B0" fill-opacity="0.06"/>
<path d="M122.5 87.3019C124.98 87.3019 126.991 85.2926 126.991 82.8139C126.991 80.3353 124.98 78.3259 122.5 78.3259C120.02 78.3259 118.009 80.3353 118.009 82.8139C118.009 85.2926 120.02 87.3019 122.5 87.3019Z" fill="#2964B0" fill-opacity="0.06"/>
<path d="M135.598 87.3019C138.078 87.3019 140.089 85.2926 140.089 82.8139C140.089 80.3353 138.078 78.3259 135.598 78.3259C133.118 78.3259 131.107 80.3353 131.107 82.8139C131.107 85.2926 133.118 87.3019 135.598 87.3019Z" fill="#2964B0" fill-opacity="0.06"/>
<path d="M148.696 87.3019C151.177 87.3019 153.187 85.2926 153.187 82.8139C153.187 80.3353 151.177 78.3259 148.696 78.3259C146.216 78.3259 144.206 80.3353 144.206 82.8139C144.206 85.2926 146.216 87.3019 148.696 87.3019Z" fill="#2964B0" fill-opacity="0.06"/>
<path d="M161.795 87.3019C164.275 87.3019 166.285 85.2926 166.285 82.8139C166.285 80.3353 164.275 78.3259 161.795 78.3259C159.314 78.3259 157.304 80.3353 157.304 82.8139C157.304 85.2926 159.314 87.3019 161.795 87.3019Z" fill="#2964B0" fill-opacity="0.06"/>
<path d="M178.957 83.5397C179.355 81.093 177.692 78.7877 175.244 78.3905C172.796 77.9934 170.489 79.6548 170.092 82.1015C169.694 84.5481 171.357 86.8534 173.805 87.2506C176.253 87.6477 178.56 85.9863 178.957 83.5397Z" fill="#2964B0" fill-opacity="0.06"/>
<path d="M187.617 87.3019C190.097 87.3019 192.107 85.2926 192.107 82.8139C192.107 80.3353 190.097 78.3259 187.617 78.3259C185.136 78.3259 183.126 80.3353 183.126 82.8139C183.126 85.2926 185.136 87.3019 187.617 87.3019Z" fill="#2964B0" fill-opacity="0.06"/>
<path d="M200.715 87.3019C203.195 87.3019 205.205 85.2926 205.205 82.8139C205.205 80.3353 203.195 78.3259 200.715 78.3259C198.234 78.3259 196.224 80.3353 196.224 82.8139C196.224 85.2926 198.234 87.3019 200.715 87.3019Z" fill="#2964B0" fill-opacity="0.06"/>
<path d="M18.0889 100.392C20.5691 100.392 22.5797 98.3827 22.5797 95.904C22.5797 93.4254 20.5691 91.416 18.0889 91.416C15.6087 91.416 13.5981 93.4254 13.5981 95.904C13.5981 98.3827 15.6087 100.392 18.0889 100.392Z" fill="#2964B0" fill-opacity="0.06"/>
<path d="M31.1871 100.392C33.6673 100.392 35.6779 98.3827 35.6779 95.904C35.6779 93.4254 33.6673 91.416 31.1871 91.416C28.7069 91.416 26.6963 93.4254 26.6963 95.904C26.6963 98.3827 28.7069 100.392 31.1871 100.392Z" fill="#2964B0" fill-opacity="0.06"/>
<path d="M44.2853 100.392C46.7655 100.392 48.7761 98.3827 48.7761 95.904C48.7761 93.4254 46.7655 91.416 44.2853 91.416C41.8051 91.416 39.7945 93.4254 39.7945 95.904C39.7945 98.3827 41.8051 100.392 44.2853 100.392Z" fill="#2964B0" fill-opacity="0.06"/>
<path d="M57.3834 100.392C59.8636 100.392 61.8742 98.3827 61.8742 95.904C61.8742 93.4254 59.8636 91.416 57.3834 91.416C54.9032 91.416 52.8926 93.4254 52.8926 95.904C52.8926 98.3827 54.9032 100.392 57.3834 100.392Z" fill="#2964B0" fill-opacity="0.06"/>
<path d="M70.4816 100.392C72.9618 100.392 74.9724 98.3827 74.9724 95.904C74.9724 93.4254 72.9618 91.416 70.4816 91.416C68.0014 91.416 65.9908 93.4254 65.9908 95.904C65.9908 98.3827 68.0014 100.392 70.4816 100.392Z" fill="#2964B0" fill-opacity="0.06"/>
<path d="M83.2055 100.392C85.6857 100.392 87.6963 98.3827 87.6963 95.904C87.6963 93.4254 85.6857 91.416 83.2055 91.416C80.7253 91.416 78.7147 93.4254 78.7147 95.904C78.7147 98.3827 80.7253 100.392 83.2055 100.392Z" fill="#2964B0" fill-opacity="0.06"/>
<path d="M96.3037 100.392C98.7839 100.392 100.794 98.3827 100.794 95.904C100.794 93.4254 98.7839 91.416 96.3037 91.416C93.8235 91.416 91.8129 93.4254 91.8129 95.904C91.8129 98.3827 93.8235 100.392 96.3037 100.392Z" fill="#2964B0" fill-opacity="0.06"/>
<path d="M109.402 100.392C111.882 100.392 113.893 98.3827 113.893 95.904C113.893 93.4254 111.882 91.416 109.402 91.416C106.922 91.416 104.911 93.4254 104.911 95.904C104.911 98.3827 106.922 100.392 109.402 100.392Z" fill="#2964B0" fill-opacity="0.06"/>
<path d="M122.5 100.392C124.98 100.392 126.991 98.3827 126.991 95.904C126.991 93.4254 124.98 91.416 122.5 91.416C120.02 91.416 118.009 93.4254 118.009 95.904C118.009 98.3827 120.02 100.392 122.5 100.392Z" fill="#2964B0" fill-opacity="0.06"/>
<path d="M135.598 100.392C138.078 100.392 140.089 98.3827 140.089 95.904C140.089 93.4254 138.078 91.416 135.598 91.416C133.118 91.416 131.107 93.4254 131.107 95.904C131.107 98.3827 133.118 100.392 135.598 100.392Z" fill="#2964B0" fill-opacity="0.06"/>
<path d="M148.696 100.392C151.177 100.392 153.187 98.3827 153.187 95.904C153.187 93.4254 151.177 91.416 148.696 91.416C146.216 91.416 144.206 93.4254 144.206 95.904C144.206 98.3827 146.216 100.392 148.696 100.392Z" fill="#2964B0" fill-opacity="0.06"/>
<path d="M161.795 100.392C164.275 100.392 166.285 98.3827 166.285 95.904C166.285 93.4254 164.275 91.416 161.795 91.416C159.314 91.416 157.304 93.4254 157.304 95.904C157.304 98.3827 159.314 100.392 161.795 100.392Z" fill="#2964B0" fill-opacity="0.06"/>
<path d="M178.963 96.6324C179.36 94.1858 177.698 91.8805 175.25 91.4833C172.801 91.0862 170.495 92.7476 170.097 95.1942C169.7 97.6409 171.362 99.9462 173.81 100.343C176.259 100.741 178.565 99.0791 178.963 96.6324Z" fill="#2964B0" fill-opacity="0.06"/>
<path d="M187.617 100.392C190.097 100.392 192.107 98.3827 192.107 95.904C192.107 93.4254 190.097 91.416 187.617 91.416C185.136 91.416 183.126 93.4254 183.126 95.904C183.126 98.3827 185.136 100.392 187.617 100.392Z" fill="#2964B0" fill-opacity="0.06"/>
<path d="M200.715 100.392C203.195 100.392 205.205 98.3827 205.205 95.904C205.205 93.4254 203.195 91.416 200.715 91.416C198.234 91.416 196.224 93.4254 196.224 95.904C196.224 98.3827 198.234 100.392 200.715 100.392Z" fill="#2964B0" fill-opacity="0.06"/>
<path d="M18.0889 113.482C20.5691 113.482 22.5797 111.473 22.5797 108.994C22.5797 106.515 20.5691 104.506 18.0889 104.506C15.6087 104.506 13.5981 106.515 13.5981 108.994C13.5981 111.473 15.6087 113.482 18.0889 113.482Z" fill="#2964B0" fill-opacity="0.06"/>
<path d="M31.1871 113.482C33.6673 113.482 35.6779 111.473 35.6779 108.994C35.6779 106.515 33.6673 104.506 31.1871 104.506C28.7069 104.506 26.6963 106.515 26.6963 108.994C26.6963 111.473 28.7069 113.482 31.1871 113.482Z" fill="#2964B0" fill-opacity="0.06"/>
<path d="M44.2853 113.482C46.7655 113.482 48.7761 111.473 48.7761 108.994C48.7761 106.515 46.7655 104.506 44.2853 104.506C41.8051 104.506 39.7945 106.515 39.7945 108.994C39.7945 111.473 41.8051 113.482 44.2853 113.482Z" fill="#2964B0" fill-opacity="0.06"/>
<path d="M57.3834 113.482C59.8636 113.482 61.8742 111.473 61.8742 108.994C61.8742 106.515 59.8636 104.506 57.3834 104.506C54.9032 104.506 52.8926 106.515 52.8926 108.994C52.8926 111.473 54.9032 113.482 57.3834 113.482Z" fill="#2964B0" fill-opacity="0.06"/>
<path d="M70.4816 113.482C72.9618 113.482 74.9724 111.473 74.9724 108.994C74.9724 106.515 72.9618 104.506 70.4816 104.506C68.0014 104.506 65.9908 106.515 65.9908 108.994C65.9908 111.473 68.0014 113.482 70.4816 113.482Z" fill="#2964B0" fill-opacity="0.06"/>
<path d="M83.2055 113.482C85.6857 113.482 87.6963 111.473 87.6963 108.994C87.6963 106.515 85.6857 104.506 83.2055 104.506C80.7253 104.506 78.7147 106.515 78.7147 108.994C78.7147 111.473 80.7253 113.482 83.2055 113.482Z" fill="#2964B0" fill-opacity="0.06"/>
<path d="M96.3037 113.482C98.7839 113.482 100.794 111.473 100.794 108.994C100.794 106.515 98.7839 104.506 96.3037 104.506C93.8235 104.506 91.8129 106.515 91.8129 108.994C91.8129 111.473 93.8235 113.482 96.3037 113.482Z" fill="#2964B0" fill-opacity="0.06"/>
<path d="M109.402 113.482C111.882 113.482 113.893 111.473 113.893 108.994C113.893 106.515 111.882 104.506 109.402 104.506C106.922 104.506 104.911 106.515 104.911 108.994C104.911 111.473 106.922 113.482 109.402 113.482Z" fill="#2964B0" fill-opacity="0.06"/>
<path d="M122.5 113.482C124.98 113.482 126.991 111.473 126.991 108.994C126.991 106.515 124.98 104.506 122.5 104.506C120.02 104.506 118.009 106.515 118.009 108.994C118.009 111.473 120.02 113.482 122.5 113.482Z" fill="#2964B0" fill-opacity="0.06"/>
<path d="M135.598 113.482C138.078 113.482 140.089 111.473 140.089 108.994C140.089 106.515 138.078 104.506 135.598 104.506C133.118 104.506 131.107 106.515 131.107 108.994C131.107 111.473 133.118 113.482 135.598 113.482Z" fill="#2964B0" fill-opacity="0.06"/>
<path d="M148.696 113.482C151.177 113.482 153.187 111.473 153.187 108.994C153.187 106.515 151.177 104.506 148.696 104.506C146.216 104.506 144.206 106.515 144.206 108.994C144.206 111.473 146.216 113.482 148.696 113.482Z" fill="#2964B0" fill-opacity="0.06"/>
<path d="M161.795 113.482C164.275 113.482 166.285 111.473 166.285 108.994C166.285 106.515 164.275 104.506 161.795 104.506C159.314 104.506 157.304 106.515 157.304 108.994C157.304 111.473 159.314 113.482 161.795 113.482Z" fill="#2964B0" fill-opacity="0.06"/>
<path d="M178.956 109.713C179.353 107.266 177.691 104.961 175.242 104.564C172.794 104.167 170.488 105.828 170.09 108.275C169.693 110.721 171.355 113.027 173.803 113.424C176.252 113.821 178.558 112.16 178.956 109.713Z" fill="#2964B0" fill-opacity="0.06"/>
<path d="M187.617 113.482C190.097 113.482 192.107 111.473 192.107 108.994C192.107 106.515 190.097 104.506 187.617 104.506C185.136 104.506 183.126 106.515 183.126 108.994C183.126 111.473 185.136 113.482 187.617 113.482Z" fill="#2964B0" fill-opacity="0.06"/>
<path d="M200.715 113.482C203.195 113.482 205.205 111.473 205.205 108.994C205.205 106.515 203.195 104.506 200.715 104.506C198.234 104.506 196.224 106.515 196.224 108.994C196.224 111.473 198.234 113.482 200.715 113.482Z" fill="#2964B0" fill-opacity="0.06"/>
<path d="M18.0889 126.572C20.5691 126.572 22.5797 124.563 22.5797 122.084C22.5797 119.605 20.5691 117.596 18.0889 117.596C15.6087 117.596 13.5981 119.605 13.5981 122.084C13.5981 124.563 15.6087 126.572 18.0889 126.572Z" fill="#2964B0" fill-opacity="0.06"/>
<path d="M31.1871 126.572C33.6673 126.572 35.6779 124.563 35.6779 122.084C35.6779 119.605 33.6673 117.596 31.1871 117.596C28.7069 117.596 26.6963 119.605 26.6963 122.084C26.6963 124.563 28.7069 126.572 31.1871 126.572Z" fill="#2964B0" fill-opacity="0.06"/>
<path d="M44.2853 126.572C46.7655 126.572 48.7761 124.563 48.7761 122.084C48.7761 119.605 46.7655 117.596 44.2853 117.596C41.8051 117.596 39.7945 119.605 39.7945 122.084C39.7945 124.563 41.8051 126.572 44.2853 126.572Z" fill="#2964B0" fill-opacity="0.06"/>
<path d="M57.3834 126.572C59.8636 126.572 61.8742 124.563 61.8742 122.084C61.8742 119.605 59.8636 117.596 57.3834 117.596C54.9032 117.596 52.8926 119.605 52.8926 122.084C52.8926 124.563 54.9032 126.572 57.3834 126.572Z" fill="#2964B0" fill-opacity="0.06"/>
<path d="M70.4816 126.572C72.9618 126.572 74.9724 124.563 74.9724 122.084C74.9724 119.605 72.9618 117.596 70.4816 117.596C68.0014 117.596 65.9908 119.605 65.9908 122.084C65.9908 124.563 68.0014 126.572 70.4816 126.572Z" fill="#2964B0" fill-opacity="0.06"/>
<path d="M83.2055 126.572C85.6857 126.572 87.6963 124.563 87.6963 122.084C87.6963 119.605 85.6857 117.596 83.2055 117.596C80.7253 117.596 78.7147 119.605 78.7147 122.084C78.7147 124.563 80.7253 126.572 83.2055 126.572Z" fill="#2964B0" fill-opacity="0.06"/>
<path d="M96.3037 126.572C98.7839 126.572 100.794 124.563 100.794 122.084C100.794 119.605 98.7839 117.596 96.3037 117.596C93.8235 117.596 91.8129 119.605 91.8129 122.084C91.8129 124.563 93.8235 126.572 96.3037 126.572Z" fill="#2964B0" fill-opacity="0.06"/>
<path d="M109.402 126.572C111.882 126.572 113.893 124.563 113.893 122.084C113.893 119.605 111.882 117.596 109.402 117.596C106.922 117.596 104.911 119.605 104.911 122.084C104.911 124.563 106.922 126.572 109.402 126.572Z" fill="#2964B0" fill-opacity="0.06"/>
<path d="M122.5 126.572C124.98 126.572 126.991 124.563 126.991 122.084C126.991 119.605 124.98 117.596 122.5 117.596C120.02 117.596 118.009 119.605 118.009 122.084C118.009 124.563 120.02 126.572 122.5 126.572Z" fill="#2964B0" fill-opacity="0.06"/>
<path d="M135.598 126.572C138.078 126.572 140.089 124.563 140.089 122.084C140.089 119.605 138.078 117.596 135.598 117.596C133.118 117.596 131.107 119.605 131.107 122.084C131.107 124.563 133.118 126.572 135.598 126.572Z" fill="#2964B0" fill-opacity="0.06"/>
<path d="M148.696 126.572C151.177 126.572 153.187 124.563 153.187 122.084C153.187 119.605 151.177 117.596 148.696 117.596C146.216 117.596 144.206 119.605 144.206 122.084C144.206 124.563 146.216 126.572 148.696 126.572Z" fill="#2964B0" fill-opacity="0.06"/>
<path d="M161.795 126.572C164.275 126.572 166.285 124.563 166.285 122.084C166.285 119.605 164.275 117.596 161.795 117.596C159.314 117.596 157.304 119.605 157.304 122.084C157.304 124.563 159.314 126.572 161.795 126.572Z" fill="#2964B0" fill-opacity="0.06"/>
<path d="M178.961 122.806C179.358 120.359 177.696 118.054 175.248 117.657C172.8 117.26 170.493 118.921 170.096 121.368C169.698 123.814 171.361 126.12 173.809 126.517C176.257 126.914 178.564 125.253 178.961 122.806Z" fill="#2964B0" fill-opacity="0.06"/>
<path d="M187.617 126.572C190.097 126.572 192.107 124.563 192.107 122.084C192.107 119.605 190.097 117.596 187.617 117.596C185.136 117.596 183.126 119.605 183.126 122.084C183.126 124.563 185.136 126.572 187.617 126.572Z" fill="#2964B0" fill-opacity="0.06"/>
<path d="M200.715 126.572C203.195 126.572 205.205 124.563 205.205 122.084C205.205 119.605 203.195 117.596 200.715 117.596C198.234 117.596 196.224 119.605 196.224 122.084C196.224 124.563 198.234 126.572 200.715 126.572Z" fill="#2964B0" fill-opacity="0.06"/>
<path d="M18.0889 139.662C20.5691 139.662 22.5797 137.653 22.5797 135.174C22.5797 132.695 20.5691 130.686 18.0889 130.686C15.6087 130.686 13.5981 132.695 13.5981 135.174C13.5981 137.653 15.6087 139.662 18.0889 139.662Z" fill="#2964B0" fill-opacity="0.06"/>
<path d="M31.1871 139.662C33.6673 139.662 35.6779 137.653 35.6779 135.174C35.6779 132.695 33.6673 130.686 31.1871 130.686C28.7069 130.686 26.6963 132.695 26.6963 135.174C26.6963 137.653 28.7069 139.662 31.1871 139.662Z" fill="#2964B0" fill-opacity="0.06"/>
<path d="M44.2853 139.662C46.7655 139.662 48.7761 137.653 48.7761 135.174C48.7761 132.695 46.7655 130.686 44.2853 130.686C41.8051 130.686 39.7945 132.695 39.7945 135.174C39.7945 137.653 41.8051 139.662 44.2853 139.662Z" fill="#2964B0" fill-opacity="0.06"/>
<path d="M57.3834 139.662C59.8636 139.662 61.8742 137.653 61.8742 135.174C61.8742 132.695 59.8636 130.686 57.3834 130.686C54.9032 130.686 52.8926 132.695 52.8926 135.174C52.8926 137.653 54.9032 139.662 57.3834 139.662Z" fill="#2964B0" fill-opacity="0.06"/>
<path d="M70.4816 139.662C72.9618 139.662 74.9724 137.653 74.9724 135.174C74.9724 132.695 72.9618 130.686 70.4816 130.686C68.0014 130.686 65.9908 132.695 65.9908 135.174C65.9908 137.653 68.0014 139.662 70.4816 139.662Z" fill="#2964B0" fill-opacity="0.06"/>
<path d="M83.2055 139.662C85.6857 139.662 87.6963 137.653 87.6963 135.174C87.6963 132.695 85.6857 130.686 83.2055 130.686C80.7253 130.686 78.7147 132.695 78.7147 135.174C78.7147 137.653 80.7253 139.662 83.2055 139.662Z" fill="#2964B0" fill-opacity="0.06"/>
<path d="M96.3037 139.662C98.7839 139.662 100.794 137.653 100.794 135.174C100.794 132.695 98.7839 130.686 96.3037 130.686C93.8235 130.686 91.8129 132.695 91.8129 135.174C91.8129 137.653 93.8235 139.662 96.3037 139.662Z" fill="#2964B0" fill-opacity="0.06"/>
<path d="M109.402 139.662C111.882 139.662 113.893 137.653 113.893 135.174C113.893 132.695 111.882 130.686 109.402 130.686C106.922 130.686 104.911 132.695 104.911 135.174C104.911 137.653 106.922 139.662 109.402 139.662Z" fill="#2964B0" fill-opacity="0.06"/>
<path d="M122.5 139.662C124.98 139.662 126.991 137.653 126.991 135.174C126.991 132.695 124.98 130.686 122.5 130.686C120.02 130.686 118.009 132.695 118.009 135.174C118.009 137.653 120.02 139.662 122.5 139.662Z" fill="#2964B0" fill-opacity="0.06"/>
<path d="M135.598 139.662C138.078 139.662 140.089 137.653 140.089 135.174C140.089 132.695 138.078 130.686 135.598 130.686C133.118 130.686 131.107 132.695 131.107 135.174C131.107 137.653 133.118 139.662 135.598 139.662Z" fill="#2964B0" fill-opacity="0.06"/>
<path d="M148.696 139.662C151.177 139.662 153.187 137.653 153.187 135.174C153.187 132.695 151.177 130.686 148.696 130.686C146.216 130.686 144.206 132.695 144.206 135.174C144.206 137.653 146.216 139.662 148.696 139.662Z" fill="#2964B0" fill-opacity="0.06"/>
<path d="M161.795 139.662C164.275 139.662 166.285 137.653 166.285 135.174C166.285 132.695 164.275 130.686 161.795 130.686C159.314 130.686 157.304 132.695 157.304 135.174C157.304 137.653 159.314 139.662 161.795 139.662Z" fill="#2964B0" fill-opacity="0.06"/>
<path d="M178.954 135.899C179.351 133.452 177.689 131.147 175.241 130.75C172.793 130.353 170.486 132.014 170.088 134.461C169.691 136.907 171.354 139.213 173.802 139.61C176.25 140.007 178.557 138.345 178.954 135.899Z" fill="#2964B0" fill-opacity="0.06"/>
<path d="M200.715 139.662C203.195 139.662 205.205 137.653 205.205 135.174C205.205 132.695 203.195 130.686 200.715 130.686C198.234 130.686 196.224 132.695 196.224 135.174C196.224 137.653 198.234 139.662 200.715 139.662Z" fill="#2964B0" fill-opacity="0.06"/>
<path d="M213.813 139.662C216.293 139.662 218.304 137.653 218.304 135.174C218.304 132.695 216.293 130.686 213.813 130.686C211.333 130.686 209.322 132.695 209.322 135.174C209.322 137.653 211.333 139.662 213.813 139.662Z" fill="#2964B0" fill-opacity="0.06"/>
<path d="M18.0889 152.378C20.5691 152.378 22.5797 150.369 22.5797 147.89C22.5797 145.411 20.5691 143.402 18.0889 143.402C15.6087 143.402 13.5981 145.411 13.5981 147.89C13.5981 150.369 15.6087 152.378 18.0889 152.378Z" fill="#2964B0" fill-opacity="0.06"/>
<path d="M31.1871 152.378C33.6673 152.378 35.6779 150.369 35.6779 147.89C35.6779 145.411 33.6673 143.402 31.1871 143.402C28.7069 143.402 26.6963 145.411 26.6963 147.89C26.6963 150.369 28.7069 152.378 31.1871 152.378Z" fill="#2964B0" fill-opacity="0.06"/>
<path d="M44.2853 152.378C46.7655 152.378 48.7761 150.369 48.7761 147.89C48.7761 145.411 46.7655 143.402 44.2853 143.402C41.8051 143.402 39.7945 145.411 39.7945 147.89C39.7945 150.369 41.8051 152.378 44.2853 152.378Z" fill="#2964B0" fill-opacity="0.06"/>
<path d="M57.3834 152.378C59.8636 152.378 61.8742 150.369 61.8742 147.89C61.8742 145.411 59.8636 143.402 57.3834 143.402C54.9032 143.402 52.8926 145.411 52.8926 147.89C52.8926 150.369 54.9032 152.378 57.3834 152.378Z" fill="#2964B0" fill-opacity="0.06"/>
<path d="M70.4816 152.378C72.9618 152.378 74.9724 150.369 74.9724 147.89C74.9724 145.411 72.9618 143.402 70.4816 143.402C68.0014 143.402 65.9908 145.411 65.9908 147.89C65.9908 150.369 68.0014 152.378 70.4816 152.378Z" fill="#2964B0" fill-opacity="0.06"/>
<path d="M83.2055 152.378C85.6857 152.378 87.6963 150.369 87.6963 147.89C87.6963 145.411 85.6857 143.402 83.2055 143.402C80.7253 143.402 78.7147 145.411 78.7147 147.89C78.7147 150.369 80.7253 152.378 83.2055 152.378Z" fill="#2964B0" fill-opacity="0.06"/>
<path d="M96.3037 152.378C98.7839 152.378 100.794 150.369 100.794 147.89C100.794 145.411 98.7839 143.402 96.3037 143.402C93.8235 143.402 91.8129 145.411 91.8129 147.89C91.8129 150.369 93.8235 152.378 96.3037 152.378Z" fill="#2964B0" fill-opacity="0.06"/>
<path d="M109.402 152.378C111.882 152.378 113.893 150.369 113.893 147.89C113.893 145.411 111.882 143.402 109.402 143.402C106.922 143.402 104.911 145.411 104.911 147.89C104.911 150.369 106.922 152.378 109.402 152.378Z" fill="#2964B0" fill-opacity="0.06"/>
<path d="M122.5 152.378C124.98 152.378 126.991 150.369 126.991 147.89C126.991 145.411 124.98 143.402 122.5 143.402C120.02 143.402 118.009 145.411 118.009 147.89C118.009 150.369 120.02 152.378 122.5 152.378Z" fill="#2964B0" fill-opacity="0.06"/>
<path d="M135.598 152.378C138.078 152.378 140.089 150.369 140.089 147.89C140.089 145.411 138.078 143.402 135.598 143.402C133.118 143.402 131.107 145.411 131.107 147.89C131.107 150.369 133.118 152.378 135.598 152.378Z" fill="#2964B0" fill-opacity="0.06"/>
<path d="M148.696 152.378C151.177 152.378 153.187 150.369 153.187 147.89C153.187 145.411 151.177 143.402 148.696 143.402C146.216 143.402 144.206 145.411 144.206 147.89C144.206 150.369 146.216 152.378 148.696 152.378Z" fill="#2964B0" fill-opacity="0.06"/>
<path d="M161.795 152.378C164.275 152.378 166.285 150.369 166.285 147.89C166.285 145.411 164.275 143.402 161.795 143.402C159.314 143.402 157.304 145.411 157.304 147.89C157.304 150.369 159.314 152.378 161.795 152.378Z" fill="#2964B0" fill-opacity="0.06"/>
<path d="M178.952 148.62C179.349 146.174 177.687 143.868 175.239 143.471C172.79 143.074 170.484 144.735 170.086 147.182C169.689 149.629 171.351 151.934 173.799 152.331C176.248 152.728 178.554 151.067 178.952 148.62Z" fill="#2964B0" fill-opacity="0.06"/>
<path d="M187.617 152.378C190.097 152.378 192.107 150.369 192.107 147.89C192.107 145.411 190.097 143.402 187.617 143.402C185.136 143.402 183.126 145.411 183.126 147.89C183.126 150.369 185.136 152.378 187.617 152.378Z" fill="#2964B0" fill-opacity="0.06"/>
<path d="M213.813 152.378C216.293 152.378 218.304 150.369 218.304 147.89C218.304 145.411 216.293 143.402 213.813 143.402C211.333 143.402 209.322 145.411 209.322 147.89C209.322 150.369 211.333 152.378 213.813 152.378Z" fill="#2964B0" fill-opacity="0.06"/>
<path d="M226.911 152.378C229.391 152.378 231.402 150.369 231.402 147.89C231.402 145.411 229.391 143.402 226.911 143.402C224.431 143.402 222.42 145.411 222.42 147.89C222.42 150.369 224.431 152.378 226.911 152.378Z" fill="#2964B0" fill-opacity="0.06"/>
<path d="M18.0889 165.468C20.5691 165.468 22.5797 163.459 22.5797 160.98C22.5797 158.501 20.5691 156.492 18.0889 156.492C15.6087 156.492 13.5981 158.501 13.5981 160.98C13.5981 163.459 15.6087 165.468 18.0889 165.468Z" fill="#2964B0" fill-opacity="0.06"/>
<path d="M31.1871 165.468C33.6673 165.468 35.6779 163.459 35.6779 160.98C35.6779 158.501 33.6673 156.492 31.1871 156.492C28.7069 156.492 26.6963 158.501 26.6963 160.98C26.6963 163.459 28.7069 165.468 31.1871 165.468Z" fill="#2964B0" fill-opacity="0.06"/>
<path d="M44.2853 165.468C46.7655 165.468 48.7761 163.459 48.7761 160.98C48.7761 158.501 46.7655 156.492 44.2853 156.492C41.8051 156.492 39.7945 158.501 39.7945 160.98C39.7945 163.459 41.8051 165.468 44.2853 165.468Z" fill="#2964B0" fill-opacity="0.06"/>
<path d="M57.3834 165.468C59.8636 165.468 61.8742 163.459 61.8742 160.98C61.8742 158.501 59.8636 156.492 57.3834 156.492C54.9032 156.492 52.8926 158.501 52.8926 160.98C52.8926 163.459 54.9032 165.468 57.3834 165.468Z" fill="#2964B0" fill-opacity="0.06"/>
<path d="M70.4816 165.468C72.9618 165.468 74.9724 163.459 74.9724 160.98C74.9724 158.501 72.9618 156.492 70.4816 156.492C68.0014 156.492 65.9908 158.501 65.9908 160.98C65.9908 163.459 68.0014 165.468 70.4816 165.468Z" fill="#2964B0" fill-opacity="0.06"/>
<path d="M83.2055 165.468C85.6857 165.468 87.6963 163.459 87.6963 160.98C87.6963 158.501 85.6857 156.492 83.2055 156.492C80.7253 156.492 78.7147 158.501 78.7147 160.98C78.7147 163.459 80.7253 165.468 83.2055 165.468Z" fill="#2964B0" fill-opacity="0.06"/>
<path d="M96.3037 165.468C98.7839 165.468 100.794 163.459 100.794 160.98C100.794 158.501 98.7839 156.492 96.3037 156.492C93.8235 156.492 91.8129 158.501 91.8129 160.98C91.8129 163.459 93.8235 165.468 96.3037 165.468Z" fill="#2964B0" fill-opacity="0.06"/>
<path d="M109.402 165.468C111.882 165.468 113.893 163.459 113.893 160.98C113.893 158.501 111.882 156.492 109.402 156.492C106.922 156.492 104.911 158.501 104.911 160.98C104.911 163.459 106.922 165.468 109.402 165.468Z" fill="#2964B0" fill-opacity="0.06"/>
<path d="M122.5 165.468C124.98 165.468 126.991 163.459 126.991 160.98C126.991 158.501 124.98 156.492 122.5 156.492C120.02 156.492 118.009 158.501 118.009 160.98C118.009 163.459 120.02 165.468 122.5 165.468Z" fill="#2964B0" fill-opacity="0.06"/>
<path d="M135.598 165.468C138.078 165.468 140.089 163.459 140.089 160.98C140.089 158.501 138.078 156.492 135.598 156.492C133.118 156.492 131.107 158.501 131.107 160.98C131.107 163.459 133.118 165.468 135.598 165.468Z" fill="#2964B0" fill-opacity="0.06"/>
<path d="M148.696 165.468C151.177 165.468 153.187 163.459 153.187 160.98C153.187 158.501 151.177 156.492 148.696 156.492C146.216 156.492 144.206 158.501 144.206 160.98C144.206 163.459 146.216 165.468 148.696 165.468Z" fill="#2964B0" fill-opacity="0.06"/>
<path d="M161.795 165.468C164.275 165.468 166.285 163.459 166.285 160.98C166.285 158.501 164.275 156.492 161.795 156.492C159.314 156.492 157.304 158.501 157.304 160.98C157.304 163.459 159.314 165.468 161.795 165.468Z" fill="#2964B0" fill-opacity="0.06"/>
<path d="M178.957 161.713C179.355 159.267 177.692 156.961 175.244 156.564C172.796 156.167 170.489 157.828 170.092 160.275C169.694 162.722 171.357 165.027 173.805 165.424C176.253 165.821 178.56 164.16 178.957 161.713Z" fill="#2964B0" fill-opacity="0.06"/>
<path d="M187.617 165.468C190.097 165.468 192.107 163.459 192.107 160.98C192.107 158.501 190.097 156.492 187.617 156.492C185.136 156.492 183.126 158.501 183.126 160.98C183.126 163.459 185.136 165.468 187.617 165.468Z" fill="#2964B0" fill-opacity="0.06"/>
<path d="M213.813 165.468C216.293 165.468 218.304 163.459 218.304 160.98C218.304 158.501 216.293 156.492 213.813 156.492C211.333 156.492 209.322 158.501 209.322 160.98C209.322 163.459 211.333 165.468 213.813 165.468Z" fill="#2964B0" fill-opacity="0.06"/>
<path d="M226.911 165.468C229.391 165.468 231.402 163.459 231.402 160.98C231.402 158.501 229.391 156.492 226.911 156.492C224.431 156.492 222.42 158.501 222.42 160.98C222.42 163.459 224.431 165.468 226.911 165.468Z" fill="#2964B0" fill-opacity="0.06"/>
<path d="M240.009 165.468C242.489 165.468 244.5 163.459 244.5 160.98C244.5 158.501 242.489 156.492 240.009 156.492C237.529 156.492 235.518 158.501 235.518 160.98C235.518 163.459 237.529 165.468 240.009 165.468Z" fill="#2964B0" fill-opacity="0.06"/>
<path d="M18.0889 178.558C20.5691 178.558 22.5797 176.549 22.5797 174.07C22.5797 171.591 20.5691 169.582 18.0889 169.582C15.6087 169.582 13.5981 171.591 13.5981 174.07C13.5981 176.549 15.6087 178.558 18.0889 178.558Z" fill="#2964B0" fill-opacity="0.06"/>
<path d="M31.1871 178.558C33.6673 178.558 35.6779 176.549 35.6779 174.07C35.6779 171.591 33.6673 169.582 31.1871 169.582C28.7069 169.582 26.6963 171.591 26.6963 174.07C26.6963 176.549 28.7069 178.558 31.1871 178.558Z" fill="#2964B0" fill-opacity="0.06"/>
<path d="M44.2853 178.558C46.7655 178.558 48.7761 176.549 48.7761 174.07C48.7761 171.591 46.7655 169.582 44.2853 169.582C41.8051 169.582 39.7945 171.591 39.7945 174.07C39.7945 176.549 41.8051 178.558 44.2853 178.558Z" fill="#2964B0" fill-opacity="0.06"/>
<path d="M57.3834 178.558C59.8636 178.558 61.8742 176.549 61.8742 174.07C61.8742 171.591 59.8636 169.582 57.3834 169.582C54.9032 169.582 52.8926 171.591 52.8926 174.07C52.8926 176.549 54.9032 178.558 57.3834 178.558Z" fill="#2964B0" fill-opacity="0.06"/>
<path d="M70.4816 178.558C72.9618 178.558 74.9724 176.549 74.9724 174.07C74.9724 171.591 72.9618 169.582 70.4816 169.582C68.0014 169.582 65.9908 171.591 65.9908 174.07C65.9908 176.549 68.0014 178.558 70.4816 178.558Z" fill="#2964B0" fill-opacity="0.06"/>
<path d="M83.2055 178.558C85.6857 178.558 87.6963 176.549 87.6963 174.07C87.6963 171.591 85.6857 169.582 83.2055 169.582C80.7253 169.582 78.7147 171.591 78.7147 174.07C78.7147 176.549 80.7253 178.558 83.2055 178.558Z" fill="#2964B0" fill-opacity="0.06"/>
<path d="M96.3037 178.558C98.7839 178.558 100.794 176.549 100.794 174.07C100.794 171.591 98.7839 169.582 96.3037 169.582C93.8235 169.582 91.8129 171.591 91.8129 174.07C91.8129 176.549 93.8235 178.558 96.3037 178.558Z" fill="#2964B0" fill-opacity="0.06"/>
<path d="M109.402 178.558C111.882 178.558 113.893 176.549 113.893 174.07C113.893 171.591 111.882 169.582 109.402 169.582C106.922 169.582 104.911 171.591 104.911 174.07C104.911 176.549 106.922 178.558 109.402 178.558Z" fill="#2964B0" fill-opacity="0.06"/>
<path d="M122.5 178.558C124.98 178.558 126.991 176.549 126.991 174.07C126.991 171.591 124.98 169.582 122.5 169.582C120.02 169.582 118.009 171.591 118.009 174.07C118.009 176.549 120.02 178.558 122.5 178.558Z" fill="#2964B0" fill-opacity="0.06"/>
<path d="M135.598 178.558C138.078 178.558 140.089 176.549 140.089 174.07C140.089 171.591 138.078 169.582 135.598 169.582C133.118 169.582 131.107 171.591 131.107 174.07C131.107 176.549 133.118 178.558 135.598 178.558Z" fill="#2964B0" fill-opacity="0.06"/>
<path d="M148.696 178.558C151.177 178.558 153.187 176.549 153.187 174.07C153.187 171.591 151.177 169.582 148.696 169.582C146.216 169.582 144.206 171.591 144.206 174.07C144.206 176.549 146.216 178.558 148.696 178.558Z" fill="#2964B0" fill-opacity="0.06"/>
<path d="M161.795 178.558C164.275 178.558 166.285 176.549 166.285 174.07C166.285 171.591 164.275 169.582 161.795 169.582C159.314 169.582 157.304 171.591 157.304 174.07C157.304 176.549 159.314 178.558 161.795 178.558Z" fill="#2964B0" fill-opacity="0.06"/>
<path d="M178.963 174.794C179.36 172.347 177.698 170.042 175.249 169.645C172.801 169.248 170.494 170.909 170.097 173.356C169.7 175.802 171.362 178.108 173.81 178.505C176.259 178.902 178.565 177.24 178.963 174.794Z" fill="#2964B0" fill-opacity="0.06"/>
<path d="M187.617 178.558C190.097 178.558 192.107 176.549 192.107 174.07C192.107 171.591 190.097 169.582 187.617 169.582C185.136 169.582 183.126 171.591 183.126 174.07C183.126 176.549 185.136 178.558 187.617 178.558Z" fill="#2964B0" fill-opacity="0.06"/>
<path d="M213.813 178.558C216.293 178.558 218.304 176.549 218.304 174.07C218.304 171.591 216.293 169.582 213.813 169.582C211.333 169.582 209.322 171.591 209.322 174.07C209.322 176.549 211.333 178.558 213.813 178.558Z" fill="#2964B0" fill-opacity="0.06"/>
<path d="M226.911 178.558C229.391 178.558 231.402 176.549 231.402 174.07C231.402 171.591 229.391 169.582 226.911 169.582C224.431 169.582 222.42 171.591 222.42 174.07C222.42 176.549 224.431 178.558 226.911 178.558Z" fill="#2964B0" fill-opacity="0.06"/>
<path d="M240.009 178.558C242.489 178.558 244.5 176.549 244.5 174.07C244.5 171.591 242.489 169.582 240.009 169.582C237.529 169.582 235.518 171.591 235.518 174.07C235.518 176.549 237.529 178.558 240.009 178.558Z" fill="#2964B0" fill-opacity="0.06"/>
<path d="M18.0889 191.648C20.5691 191.648 22.5797 189.639 22.5797 187.16C22.5797 184.681 20.5691 182.672 18.0889 182.672C15.6087 182.672 13.5981 184.681 13.5981 187.16C13.5981 189.639 15.6087 191.648 18.0889 191.648Z" fill="#2964B0" fill-opacity="0.06"/>
<path d="M31.1871 191.648C33.6673 191.648 35.6779 189.639 35.6779 187.16C35.6779 184.681 33.6673 182.672 31.1871 182.672C28.7069 182.672 26.6963 184.681 26.6963 187.16C26.6963 189.639 28.7069 191.648 31.1871 191.648Z" fill="#2964B0" fill-opacity="0.06"/>
<path d="M44.2853 191.648C46.7655 191.648 48.7761 189.639 48.7761 187.16C48.7761 184.681 46.7655 182.672 44.2853 182.672C41.8051 182.672 39.7945 184.681 39.7945 187.16C39.7945 189.639 41.8051 191.648 44.2853 191.648Z" fill="#2964B0" fill-opacity="0.06"/>
<path d="M57.3834 191.648C59.8636 191.648 61.8742 189.639 61.8742 187.16C61.8742 184.681 59.8636 182.672 57.3834 182.672C54.9032 182.672 52.8926 184.681 52.8926 187.16C52.8926 189.639 54.9032 191.648 57.3834 191.648Z" fill="#2964B0" fill-opacity="0.06"/>
<path d="M70.4816 191.648C72.9618 191.648 74.9724 189.639 74.9724 187.16C74.9724 184.681 72.9618 182.672 70.4816 182.672C68.0014 182.672 65.9908 184.681 65.9908 187.16C65.9908 189.639 68.0014 191.648 70.4816 191.648Z" fill="#2964B0" fill-opacity="0.06"/>
<path d="M83.2055 191.648C85.6857 191.648 87.6963 189.639 87.6963 187.16C87.6963 184.681 85.6857 182.672 83.2055 182.672C80.7253 182.672 78.7147 184.681 78.7147 187.16C78.7147 189.639 80.7253 191.648 83.2055 191.648Z" fill="#2964B0" fill-opacity="0.06"/>
<path d="M96.3037 191.648C98.7839 191.648 100.794 189.639 100.794 187.16C100.794 184.681 98.7839 182.672 96.3037 182.672C93.8235 182.672 91.8129 184.681 91.8129 187.16C91.8129 189.639 93.8235 191.648 96.3037 191.648Z" fill="#2964B0" fill-opacity="0.06"/>
<path d="M109.402 191.648C111.882 191.648 113.893 189.639 113.893 187.16C113.893 184.681 111.882 182.672 109.402 182.672C106.922 182.672 104.911 184.681 104.911 187.16C104.911 189.639 106.922 191.648 109.402 191.648Z" fill="#2964B0" fill-opacity="0.06"/>
<path d="M122.5 191.648C124.98 191.648 126.991 189.639 126.991 187.16C126.991 184.681 124.98 182.672 122.5 182.672C120.02 182.672 118.009 184.681 118.009 187.16C118.009 189.639 120.02 191.648 122.5 191.648Z" fill="#2964B0" fill-opacity="0.06"/>
<path d="M135.598 191.648C138.078 191.648 140.089 189.639 140.089 187.16C140.089 184.681 138.078 182.672 135.598 182.672C133.118 182.672 131.107 184.681 131.107 187.16C131.107 189.639 133.118 191.648 135.598 191.648Z" fill="#2964B0" fill-opacity="0.06"/>
<path d="M148.696 191.648C151.177 191.648 153.187 189.639 153.187 187.16C153.187 184.681 151.177 182.672 148.696 182.672C146.216 182.672 144.206 184.681 144.206 187.16C144.206 189.639 146.216 191.648 148.696 191.648Z" fill="#2964B0" fill-opacity="0.06"/>
<path d="M161.795 191.648C164.275 191.648 166.285 189.639 166.285 187.16C166.285 184.681 164.275 182.672 161.795 182.672C159.314 182.672 157.304 184.681 157.304 187.16C157.304 189.639 159.314 191.648 161.795 191.648Z" fill="#2964B0" fill-opacity="0.06"/>
<path d="M178.956 187.887C179.353 185.44 177.691 183.135 175.242 182.737C172.794 182.34 170.487 184.002 170.09 186.448C169.693 188.895 171.355 191.2 173.803 191.598C176.251 191.995 178.558 190.333 178.956 187.887Z" fill="#2964B0" fill-opacity="0.06"/>
<path d="M18.0889 204.738C20.5691 204.738 22.5797 202.729 22.5797 200.25C22.5797 197.771 20.5691 195.762 18.0889 195.762C15.6087 195.762 13.5981 197.771 13.5981 200.25C13.5981 202.729 15.6087 204.738 18.0889 204.738Z" fill="#2964B0" fill-opacity="0.06"/>
<path d="M31.1871 204.738C33.6673 204.738 35.6779 202.729 35.6779 200.25C35.6779 197.771 33.6673 195.762 31.1871 195.762C28.7069 195.762 26.6963 197.771 26.6963 200.25C26.6963 202.729 28.7069 204.738 31.1871 204.738Z" fill="#2964B0" fill-opacity="0.06"/>
<path d="M44.2853 204.738C46.7655 204.738 48.7761 202.729 48.7761 200.25C48.7761 197.771 46.7655 195.762 44.2853 195.762C41.8051 195.762 39.7945 197.771 39.7945 200.25C39.7945 202.729 41.8051 204.738 44.2853 204.738Z" fill="#2964B0" fill-opacity="0.06"/>
<path d="M57.3834 204.738C59.8636 204.738 61.8742 202.729 61.8742 200.25C61.8742 197.771 59.8636 195.762 57.3834 195.762C54.9032 195.762 52.8926 197.771 52.8926 200.25C52.8926 202.729 54.9032 204.738 57.3834 204.738Z" fill="#2964B0" fill-opacity="0.06"/>
<path d="M70.4816 204.738C72.9618 204.738 74.9724 202.729 74.9724 200.25C74.9724 197.771 72.9618 195.762 70.4816 195.762C68.0014 195.762 65.9908 197.771 65.9908 200.25C65.9908 202.729 68.0014 204.738 70.4816 204.738Z" fill="#2964B0" fill-opacity="0.06"/>
<path d="M83.2055 204.738C85.6857 204.738 87.6963 202.729 87.6963 200.25C87.6963 197.771 85.6857 195.762 83.2055 195.762C80.7253 195.762 78.7147 197.771 78.7147 200.25C78.7147 202.729 80.7253 204.738 83.2055 204.738Z" fill="#2964B0" fill-opacity="0.06"/>
<path d="M96.3037 204.738C98.7839 204.738 100.794 202.729 100.794 200.25C100.794 197.771 98.7839 195.762 96.3037 195.762C93.8235 195.762 91.8129 197.771 91.8129 200.25C91.8129 202.729 93.8235 204.738 96.3037 204.738Z" fill="#2964B0" fill-opacity="0.06"/>
<path d="M109.402 204.738C111.882 204.738 113.893 202.729 113.893 200.25C113.893 197.771 111.882 195.762 109.402 195.762C106.922 195.762 104.911 197.771 104.911 200.25C104.911 202.729 106.922 204.738 109.402 204.738Z" fill="#2964B0" fill-opacity="0.06"/>
<path d="M122.5 204.738C124.98 204.738 126.991 202.729 126.991 200.25C126.991 197.771 124.98 195.762 122.5 195.762C120.02 195.762 118.009 197.771 118.009 200.25C118.009 202.729 120.02 204.738 122.5 204.738Z" fill="#2964B0" fill-opacity="0.06"/>
<path d="M135.598 204.738C138.078 204.738 140.089 202.729 140.089 200.25C140.089 197.771 138.078 195.762 135.598 195.762C133.118 195.762 131.107 197.771 131.107 200.25C131.107 202.729 133.118 204.738 135.598 204.738Z" fill="#2964B0" fill-opacity="0.06"/>
<path d="M148.696 204.738C151.177 204.738 153.187 202.729 153.187 200.25C153.187 197.771 151.177 195.762 148.696 195.762C146.216 195.762 144.206 197.771 144.206 200.25C144.206 202.729 146.216 204.738 148.696 204.738Z" fill="#2964B0" fill-opacity="0.06"/>
<path d="M161.795 204.738C164.275 204.738 166.285 202.729 166.285 200.25C166.285 197.771 164.275 195.762 161.795 195.762C159.314 195.762 157.304 197.771 157.304 200.25C157.304 202.729 159.314 204.738 161.795 204.738Z" fill="#2964B0" fill-opacity="0.06"/>
<path d="M240.009 204.738C242.489 204.738 244.5 202.729 244.5 200.25C244.5 197.771 242.489 195.762 240.009 195.762C237.529 195.762 235.518 197.771 235.518 200.25C235.518 202.729 237.529 204.738 240.009 204.738Z" fill="#2964B0" fill-opacity="0.06"/>
<path d="M18.0889 217.828C20.5691 217.828 22.5797 215.818 22.5797 213.34C22.5797 210.861 20.5691 208.852 18.0889 208.852C15.6087 208.852 13.5981 210.861 13.5981 213.34C13.5981 215.818 15.6087 217.828 18.0889 217.828Z" fill="#2964B0" fill-opacity="0.06"/>
<path d="M31.1871 217.828C33.6673 217.828 35.6779 215.818 35.6779 213.34C35.6779 210.861 33.6673 208.852 31.1871 208.852C28.7069 208.852 26.6963 210.861 26.6963 213.34C26.6963 215.818 28.7069 217.828 31.1871 217.828Z" fill="#2964B0" fill-opacity="0.06"/>
<path d="M44.2853 217.828C46.7655 217.828 48.7761 215.818 48.7761 213.34C48.7761 210.861 46.7655 208.852 44.2853 208.852C41.8051 208.852 39.7945 210.861 39.7945 213.34C39.7945 215.818 41.8051 217.828 44.2853 217.828Z" fill="#2964B0" fill-opacity="0.06"/>
<path d="M57.3834 217.828C59.8636 217.828 61.8742 215.818 61.8742 213.34C61.8742 210.861 59.8636 208.852 57.3834 208.852C54.9032 208.852 52.8926 210.861 52.8926 213.34C52.8926 215.818 54.9032 217.828 57.3834 217.828Z" fill="#2964B0" fill-opacity="0.06"/>
<path d="M70.4816 217.828C72.9618 217.828 74.9724 215.818 74.9724 213.34C74.9724 210.861 72.9618 208.852 70.4816 208.852C68.0014 208.852 65.9908 210.861 65.9908 213.34C65.9908 215.818 68.0014 217.828 70.4816 217.828Z" fill="#2964B0" fill-opacity="0.06"/>
<path d="M83.2055 217.828C85.6857 217.828 87.6963 215.818 87.6963 213.34C87.6963 210.861 85.6857 208.852 83.2055 208.852C80.7253 208.852 78.7147 210.861 78.7147 213.34C78.7147 215.818 80.7253 217.828 83.2055 217.828Z" fill="#2964B0" fill-opacity="0.06"/>
<path d="M96.3037 217.828C98.7839 217.828 100.794 215.818 100.794 213.34C100.794 210.861 98.7839 208.852 96.3037 208.852C93.8235 208.852 91.8129 210.861 91.8129 213.34C91.8129 215.818 93.8235 217.828 96.3037 217.828Z" fill="#2964B0" fill-opacity="0.06"/>
<path d="M109.402 217.828C111.882 217.828 113.893 215.818 113.893 213.34C113.893 210.861 111.882 208.852 109.402 208.852C106.922 208.852 104.911 210.861 104.911 213.34C104.911 215.818 106.922 217.828 109.402 217.828Z" fill="#2964B0" fill-opacity="0.06"/>
<path d="M122.5 217.828C124.98 217.828 126.991 215.818 126.991 213.34C126.991 210.861 124.98 208.852 122.5 208.852C120.02 208.852 118.009 210.861 118.009 213.34C118.009 215.818 120.02 217.828 122.5 217.828Z" fill="#2964B0" fill-opacity="0.06"/>
<path d="M135.598 217.828C138.078 217.828 140.089 215.818 140.089 213.34C140.089 210.861 138.078 208.852 135.598 208.852C133.118 208.852 131.107 210.861 131.107 213.34C131.107 215.818 133.118 217.828 135.598 217.828Z" fill="#2964B0" fill-opacity="0.06"/>
<path d="M148.696 217.828C151.177 217.828 153.187 215.818 153.187 213.34C153.187 210.861 151.177 208.852 148.696 208.852C146.216 208.852 144.206 210.861 144.206 213.34C144.206 215.818 146.216 217.828 148.696 217.828Z" fill="#2964B0" fill-opacity="0.06"/>
<path d="M161.795 217.828C164.275 217.828 166.285 215.818 166.285 213.34C166.285 210.861 164.275 208.852 161.795 208.852C159.314 208.852 157.304 210.861 157.304 213.34C157.304 215.818 159.314 217.828 161.795 217.828Z" fill="#2964B0" fill-opacity="0.06"/>
<path d="M226.911 217.828C229.391 217.828 231.402 215.818 231.402 213.34C231.402 210.861 229.391 208.852 226.911 208.852C224.431 208.852 222.42 210.861 222.42 213.34C222.42 215.818 224.431 217.828 226.911 217.828Z" fill="#2964B0" fill-opacity="0.06"/>
<path d="M240.009 217.828C242.489 217.828 244.5 215.818 244.5 213.34C244.5 210.861 242.489 208.852 240.009 208.852C237.529 208.852 235.518 210.861 235.518 213.34C235.518 215.818 237.529 217.828 240.009 217.828Z" fill="#2964B0" fill-opacity="0.06"/>
<path d="M18.0889 230.918C20.5691 230.918 22.5797 228.909 22.5797 226.43C22.5797 223.951 20.5691 221.942 18.0889 221.942C15.6087 221.942 13.5981 223.951 13.5981 226.43C13.5981 228.909 15.6087 230.918 18.0889 230.918Z" fill="#2964B0" fill-opacity="0.06"/>
<path d="M31.1871 230.918C33.6673 230.918 35.6779 228.909 35.6779 226.43C35.6779 223.951 33.6673 221.942 31.1871 221.942C28.7069 221.942 26.6963 223.951 26.6963 226.43C26.6963 228.909 28.7069 230.918 31.1871 230.918Z" fill="#2964B0" fill-opacity="0.06"/>
<path d="M44.2853 230.918C46.7655 230.918 48.7761 228.909 48.7761 226.43C48.7761 223.951 46.7655 221.942 44.2853 221.942C41.8051 221.942 39.7945 223.951 39.7945 226.43C39.7945 228.909 41.8051 230.918 44.2853 230.918Z" fill="#2964B0" fill-opacity="0.06"/>
<path d="M57.3834 230.918C59.8636 230.918 61.8742 228.909 61.8742 226.43C61.8742 223.951 59.8636 221.942 57.3834 221.942C54.9032 221.942 52.8926 223.951 52.8926 226.43C52.8926 228.909 54.9032 230.918 57.3834 230.918Z" fill="#2964B0" fill-opacity="0.06"/>
<path d="M70.4816 230.918C72.9618 230.918 74.9724 228.909 74.9724 226.43C74.9724 223.951 72.9618 221.942 70.4816 221.942C68.0014 221.942 65.9908 223.951 65.9908 226.43C65.9908 228.909 68.0014 230.918 70.4816 230.918Z" fill="#2964B0" fill-opacity="0.06"/>
<path d="M83.2055 230.918C85.6857 230.918 87.6963 228.909 87.6963 226.43C87.6963 223.951 85.6857 221.942 83.2055 221.942C80.7253 221.942 78.7147 223.951 78.7147 226.43C78.7147 228.909 80.7253 230.918 83.2055 230.918Z" fill="#2964B0" fill-opacity="0.06"/>
<path d="M96.3037 230.918C98.7839 230.918 100.794 228.909 100.794 226.43C100.794 223.951 98.7839 221.942 96.3037 221.942C93.8235 221.942 91.8129 223.951 91.8129 226.43C91.8129 228.909 93.8235 230.918 96.3037 230.918Z" fill="#2964B0" fill-opacity="0.06"/>
<path d="M109.402 230.918C111.882 230.918 113.893 228.909 113.893 226.43C113.893 223.951 111.882 221.942 109.402 221.942C106.922 221.942 104.911 223.951 104.911 226.43C104.911 228.909 106.922 230.918 109.402 230.918Z" fill="#2964B0" fill-opacity="0.06"/>
<path d="M122.5 230.918C124.98 230.918 126.991 228.909 126.991 226.43C126.991 223.951 124.98 221.942 122.5 221.942C120.02 221.942 118.009 223.951 118.009 226.43C118.009 228.909 120.02 230.918 122.5 230.918Z" fill="#2964B0" fill-opacity="0.06"/>
<path d="M135.598 230.918C138.078 230.918 140.089 228.909 140.089 226.43C140.089 223.951 138.078 221.942 135.598 221.942C133.118 221.942 131.107 223.951 131.107 226.43C131.107 228.909 133.118 230.918 135.598 230.918Z" fill="#2964B0" fill-opacity="0.06"/>
<path d="M148.696 230.918C151.177 230.918 153.187 228.909 153.187 226.43C153.187 223.951 151.177 221.942 148.696 221.942C146.216 221.942 144.206 223.951 144.206 226.43C144.206 228.909 146.216 230.918 148.696 230.918Z" fill="#2964B0" fill-opacity="0.06"/>
<path d="M161.795 230.918C164.275 230.918 166.285 228.909 166.285 226.43C166.285 223.951 164.275 221.942 161.795 221.942C159.314 221.942 157.304 223.951 157.304 226.43C157.304 228.909 159.314 230.918 161.795 230.918Z" fill="#2964B0" fill-opacity="0.06"/>
<path d="M226.911 230.918C229.391 230.918 231.402 228.909 231.402 226.43C231.402 223.951 229.391 221.942 226.911 221.942C224.431 221.942 222.42 223.951 222.42 226.43C222.42 228.909 224.431 230.918 226.911 230.918Z" fill="#2964B0" fill-opacity="0.06"/>
<path d="M240.009 230.918C242.489 230.918 244.5 228.909 244.5 226.43C244.5 223.951 242.489 221.942 240.009 221.942C237.529 221.942 235.518 223.951 235.518 226.43C235.518 228.909 237.529 230.918 240.009 230.918Z" fill="#2964B0" fill-opacity="0.06"/>
<path d="M18.0889 243.634C20.5691 243.634 22.5797 241.625 22.5797 239.146C22.5797 236.667 20.5691 234.658 18.0889 234.658C15.6087 234.658 13.5981 236.667 13.5981 239.146C13.5981 241.625 15.6087 243.634 18.0889 243.634Z" fill="#2964B0" fill-opacity="0.06"/>
<path d="M31.1871 243.634C33.6673 243.634 35.6779 241.625 35.6779 239.146C35.6779 236.667 33.6673 234.658 31.1871 234.658C28.7069 234.658 26.6963 236.667 26.6963 239.146C26.6963 241.625 28.7069 243.634 31.1871 243.634Z" fill="#2964B0" fill-opacity="0.06"/>
<path d="M44.2853 243.634C46.7655 243.634 48.7761 241.625 48.7761 239.146C48.7761 236.667 46.7655 234.658 44.2853 234.658C41.8051 234.658 39.7945 236.667 39.7945 239.146C39.7945 241.625 41.8051 243.634 44.2853 243.634Z" fill="#2964B0" fill-opacity="0.06"/>
<path d="M57.3834 243.634C59.8636 243.634 61.8742 241.625 61.8742 239.146C61.8742 236.667 59.8636 234.658 57.3834 234.658C54.9032 234.658 52.8926 236.667 52.8926 239.146C52.8926 241.625 54.9032 243.634 57.3834 243.634Z" fill="#2964B0" fill-opacity="0.06"/>
<path d="M70.4816 243.634C72.9618 243.634 74.9724 241.625 74.9724 239.146C74.9724 236.667 72.9618 234.658 70.4816 234.658C68.0014 234.658 65.9908 236.667 65.9908 239.146C65.9908 241.625 68.0014 243.634 70.4816 243.634Z" fill="#2964B0" fill-opacity="0.06"/>
<path d="M83.2055 243.634C85.6857 243.634 87.6963 241.625 87.6963 239.146C87.6963 236.667 85.6857 234.658 83.2055 234.658C80.7253 234.658 78.7147 236.667 78.7147 239.146C78.7147 241.625 80.7253 243.634 83.2055 243.634Z" fill="#2964B0" fill-opacity="0.06"/>
<path d="M96.3037 243.634C98.7839 243.634 100.794 241.625 100.794 239.146C100.794 236.667 98.7839 234.658 96.3037 234.658C93.8235 234.658 91.8129 236.667 91.8129 239.146C91.8129 241.625 93.8235 243.634 96.3037 243.634Z" fill="#2964B0" fill-opacity="0.06"/>
<path d="M109.402 243.634C111.882 243.634 113.893 241.625 113.893 239.146C113.893 236.667 111.882 234.658 109.402 234.658C106.922 234.658 104.911 236.667 104.911 239.146C104.911 241.625 106.922 243.634 109.402 243.634Z" fill="#2964B0" fill-opacity="0.06"/>
<path d="M122.5 243.634C124.98 243.634 126.991 241.625 126.991 239.146C126.991 236.667 124.98 234.658 122.5 234.658C120.02 234.658 118.009 236.667 118.009 239.146C118.009 241.625 120.02 243.634 122.5 243.634Z" fill="#2964B0" fill-opacity="0.06"/>
<path d="M135.598 243.634C138.078 243.634 140.089 241.625 140.089 239.146C140.089 236.667 138.078 234.658 135.598 234.658C133.118 234.658 131.107 236.667 131.107 239.146C131.107 241.625 133.118 243.634 135.598 243.634Z" fill="#2964B0" fill-opacity="0.06"/>
<path d="M148.696 243.634C151.177 243.634 153.187 241.625 153.187 239.146C153.187 236.667 151.177 234.658 148.696 234.658C146.216 234.658 144.206 236.667 144.206 239.146C144.206 241.625 146.216 243.634 148.696 243.634Z" fill="#2964B0" fill-opacity="0.06"/>
<path d="M161.795 243.634C164.275 243.634 166.285 241.625 166.285 239.146C166.285 236.667 164.275 234.658 161.795 234.658C159.314 234.658 157.304 236.667 157.304 239.146C157.304 241.625 159.314 243.634 161.795 243.634Z" fill="#2964B0" fill-opacity="0.06"/>
<path d="M226.911 243.634C229.391 243.634 231.402 241.625 231.402 239.146C231.402 236.667 229.391 234.658 226.911 234.658C224.431 234.658 222.42 236.667 222.42 239.146C222.42 241.625 224.431 243.634 226.911 243.634Z" fill="#2964B0" fill-opacity="0.06"/>
<path d="M240.009 243.634C242.489 243.634 244.5 241.625 244.5 239.146C244.5 236.667 242.489 234.658 240.009 234.658C237.529 234.658 235.518 236.667 235.518 239.146C235.518 241.625 237.529 243.634 240.009 243.634Z" fill="#2964B0" fill-opacity="0.06"/>
<path d="M18.0889 256.724C20.5691 256.724 22.5797 254.714 22.5797 252.236C22.5797 249.757 20.5691 247.748 18.0889 247.748C15.6087 247.748 13.5981 249.757 13.5981 252.236C13.5981 254.714 15.6087 256.724 18.0889 256.724Z" fill="#2964B0" fill-opacity="0.06"/>
<path d="M31.1871 256.724C33.6673 256.724 35.6779 254.714 35.6779 252.236C35.6779 249.757 33.6673 247.748 31.1871 247.748C28.7069 247.748 26.6963 249.757 26.6963 252.236C26.6963 254.714 28.7069 256.724 31.1871 256.724Z" fill="#2964B0" fill-opacity="0.06"/>
<path d="M44.2853 256.724C46.7655 256.724 48.7761 254.714 48.7761 252.236C48.7761 249.757 46.7655 247.748 44.2853 247.748C41.8051 247.748 39.7945 249.757 39.7945 252.236C39.7945 254.714 41.8051 256.724 44.2853 256.724Z" fill="#2964B0" fill-opacity="0.06"/>
<path d="M57.3834 256.724C59.8636 256.724 61.8742 254.714 61.8742 252.236C61.8742 249.757 59.8636 247.748 57.3834 247.748C54.9032 247.748 52.8926 249.757 52.8926 252.236C52.8926 254.714 54.9032 256.724 57.3834 256.724Z" fill="#2964B0" fill-opacity="0.06"/>
<path d="M70.4816 256.724C72.9618 256.724 74.9724 254.714 74.9724 252.236C74.9724 249.757 72.9618 247.748 70.4816 247.748C68.0014 247.748 65.9908 249.757 65.9908 252.236C65.9908 254.714 68.0014 256.724 70.4816 256.724Z" fill="#2964B0" fill-opacity="0.06"/>
<path d="M83.2055 256.724C85.6857 256.724 87.6963 254.714 87.6963 252.236C87.6963 249.757 85.6857 247.748 83.2055 247.748C80.7253 247.748 78.7147 249.757 78.7147 252.236C78.7147 254.714 80.7253 256.724 83.2055 256.724Z" fill="#2964B0" fill-opacity="0.06"/>
<path d="M96.3037 256.724C98.7839 256.724 100.794 254.714 100.794 252.236C100.794 249.757 98.7839 247.748 96.3037 247.748C93.8235 247.748 91.8129 249.757 91.8129 252.236C91.8129 254.714 93.8235 256.724 96.3037 256.724Z" fill="#2964B0" fill-opacity="0.06"/>
<path d="M109.402 256.724C111.882 256.724 113.893 254.714 113.893 252.236C113.893 249.757 111.882 247.748 109.402 247.748C106.922 247.748 104.911 249.757 104.911 252.236C104.911 254.714 106.922 256.724 109.402 256.724Z" fill="#2964B0" fill-opacity="0.06"/>
<path d="M122.5 256.724C124.98 256.724 126.991 254.714 126.991 252.236C126.991 249.757 124.98 247.748 122.5 247.748C120.02 247.748 118.009 249.757 118.009 252.236C118.009 254.714 120.02 256.724 122.5 256.724Z" fill="#2964B0" fill-opacity="0.06"/>
<path d="M135.598 256.724C138.078 256.724 140.089 254.714 140.089 252.236C140.089 249.757 138.078 247.748 135.598 247.748C133.118 247.748 131.107 249.757 131.107 252.236C131.107 254.714 133.118 256.724 135.598 256.724Z" fill="#2964B0" fill-opacity="0.06"/>
<path d="M148.696 256.724C151.177 256.724 153.187 254.714 153.187 252.236C153.187 249.757 151.177 247.748 148.696 247.748C146.216 247.748 144.206 249.757 144.206 252.236C144.206 254.714 146.216 256.724 148.696 256.724Z" fill="#2964B0" fill-opacity="0.06"/>
<path d="M161.795 256.724C164.275 256.724 166.285 254.714 166.285 252.236C166.285 249.757 164.275 247.748 161.795 247.748C159.314 247.748 157.304 249.757 157.304 252.236C157.304 254.714 159.314 256.724 161.795 256.724Z" fill="#2964B0" fill-opacity="0.06"/>
<path d="M187.617 256.724C190.097 256.724 192.107 254.714 192.107 252.236C192.107 249.757 190.097 247.748 187.617 247.748C185.136 247.748 183.126 249.757 183.126 252.236C183.126 254.714 185.136 256.724 187.617 256.724Z" fill="#2964B0" fill-opacity="0.06"/>
<path d="M213.813 256.724C216.293 256.724 218.304 254.714 218.304 252.236C218.304 249.757 216.293 247.748 213.813 247.748C211.333 247.748 209.322 249.757 209.322 252.236C209.322 254.714 211.333 256.724 213.813 256.724Z" fill="#2964B0" fill-opacity="0.06"/>
<path d="M226.911 256.724C229.391 256.724 231.402 254.714 231.402 252.236C231.402 249.757 229.391 247.748 226.911 247.748C224.431 247.748 222.42 249.757 222.42 252.236C222.42 254.714 224.431 256.724 226.911 256.724Z" fill="#2964B0" fill-opacity="0.06"/>
<path d="M240.009 256.724C242.489 256.724 244.5 254.714 244.5 252.236C244.5 249.757 242.489 247.748 240.009 247.748C237.529 247.748 235.518 249.757 235.518 252.236C235.518 254.714 237.529 256.724 240.009 256.724Z" fill="#2964B0" fill-opacity="0.06"/>
<path d="M18.0889 269.814C20.5691 269.814 22.5797 267.805 22.5797 265.326C22.5797 262.847 20.5691 260.838 18.0889 260.838C15.6087 260.838 13.5981 262.847 13.5981 265.326C13.5981 267.805 15.6087 269.814 18.0889 269.814Z" fill="#2964B0" fill-opacity="0.06"/>
<path d="M31.1871 269.814C33.6673 269.814 35.6779 267.805 35.6779 265.326C35.6779 262.847 33.6673 260.838 31.1871 260.838C28.7069 260.838 26.6963 262.847 26.6963 265.326C26.6963 267.805 28.7069 269.814 31.1871 269.814Z" fill="#2964B0" fill-opacity="0.06"/>
<path d="M44.2853 269.814C46.7655 269.814 48.7761 267.805 48.7761 265.326C48.7761 262.847 46.7655 260.838 44.2853 260.838C41.8051 260.838 39.7945 262.847 39.7945 265.326C39.7945 267.805 41.8051 269.814 44.2853 269.814Z" fill="#2964B0" fill-opacity="0.06"/>
<path d="M57.3834 269.814C59.8636 269.814 61.8742 267.805 61.8742 265.326C61.8742 262.847 59.8636 260.838 57.3834 260.838C54.9032 260.838 52.8926 262.847 52.8926 265.326C52.8926 267.805 54.9032 269.814 57.3834 269.814Z" fill="#2964B0" fill-opacity="0.06"/>
<path d="M70.4816 269.814C72.9618 269.814 74.9724 267.805 74.9724 265.326C74.9724 262.847 72.9618 260.838 70.4816 260.838C68.0014 260.838 65.9908 262.847 65.9908 265.326C65.9908 267.805 68.0014 269.814 70.4816 269.814Z" fill="#2964B0" fill-opacity="0.06"/>
<path d="M83.2055 269.814C85.6857 269.814 87.6963 267.805 87.6963 265.326C87.6963 262.847 85.6857 260.838 83.2055 260.838C80.7253 260.838 78.7147 262.847 78.7147 265.326C78.7147 267.805 80.7253 269.814 83.2055 269.814Z" fill="#2964B0" fill-opacity="0.06"/>
<path d="M96.3037 269.814C98.7839 269.814 100.794 267.805 100.794 265.326C100.794 262.847 98.7839 260.838 96.3037 260.838C93.8235 260.838 91.8129 262.847 91.8129 265.326C91.8129 267.805 93.8235 269.814 96.3037 269.814Z" fill="#2964B0" fill-opacity="0.06"/>
<path d="M109.402 269.814C111.882 269.814 113.893 267.805 113.893 265.326C113.893 262.847 111.882 260.838 109.402 260.838C106.922 260.838 104.911 262.847 104.911 265.326C104.911 267.805 106.922 269.814 109.402 269.814Z" fill="#2964B0" fill-opacity="0.06"/>
<path d="M122.5 269.814C124.98 269.814 126.991 267.805 126.991 265.326C126.991 262.847 124.98 260.838 122.5 260.838C120.02 260.838 118.009 262.847 118.009 265.326C118.009 267.805 120.02 269.814 122.5 269.814Z" fill="#2964B0" fill-opacity="0.06"/>
<path d="M135.598 269.814C138.078 269.814 140.089 267.805 140.089 265.326C140.089 262.847 138.078 260.838 135.598 260.838C133.118 260.838 131.107 262.847 131.107 265.326C131.107 267.805 133.118 269.814 135.598 269.814Z" fill="#2964B0" fill-opacity="0.06"/>
<path d="M148.696 269.814C151.177 269.814 153.187 267.805 153.187 265.326C153.187 262.847 151.177 260.838 148.696 260.838C146.216 260.838 144.206 262.847 144.206 265.326C144.206 267.805 146.216 269.814 148.696 269.814Z" fill="#2964B0" fill-opacity="0.06"/>
<path d="M161.795 269.814C164.275 269.814 166.285 267.805 166.285 265.326C166.285 262.847 164.275 260.838 161.795 260.838C159.314 260.838 157.304 262.847 157.304 265.326C157.304 267.805 159.314 269.814 161.795 269.814Z" fill="#2964B0" fill-opacity="0.06"/>
<path d="M187.617 269.814C190.097 269.814 192.107 267.805 192.107 265.326C192.107 262.847 190.097 260.838 187.617 260.838C185.136 260.838 183.126 262.847 183.126 265.326C183.126 267.805 185.136 269.814 187.617 269.814Z" fill="#2964B0" fill-opacity="0.06"/>
<path d="M213.813 269.814C216.293 269.814 218.304 267.805 218.304 265.326C218.304 262.847 216.293 260.838 213.813 260.838C211.333 260.838 209.322 262.847 209.322 265.326C209.322 267.805 211.333 269.814 213.813 269.814Z" fill="#2964B0" fill-opacity="0.06"/>
<path d="M226.911 269.814C229.391 269.814 231.402 267.805 231.402 265.326C231.402 262.847 229.391 260.838 226.911 260.838C224.431 260.838 222.42 262.847 222.42 265.326C222.42 267.805 224.431 269.814 226.911 269.814Z" fill="#2964B0" fill-opacity="0.06"/>
<path d="M240.009 269.814C242.489 269.814 244.5 267.805 244.5 265.326C244.5 262.847 242.489 260.838 240.009 260.838C237.529 260.838 235.518 262.847 235.518 265.326C235.518 267.805 237.529 269.814 240.009 269.814Z" fill="#2964B0" fill-opacity="0.06"/>
<path d="M18.0889 282.904C20.5691 282.904 22.5797 280.895 22.5797 278.416C22.5797 275.937 20.5691 273.928 18.0889 273.928C15.6087 273.928 13.5981 275.937 13.5981 278.416C13.5981 280.895 15.6087 282.904 18.0889 282.904Z" fill="#2964B0" fill-opacity="0.06"/>
<path d="M31.1871 282.904C33.6673 282.904 35.6779 280.895 35.6779 278.416C35.6779 275.937 33.6673 273.928 31.1871 273.928C28.7069 273.928 26.6963 275.937 26.6963 278.416C26.6963 280.895 28.7069 282.904 31.1871 282.904Z" fill="#2964B0" fill-opacity="0.06"/>
<path d="M44.2853 282.904C46.7655 282.904 48.7761 280.895 48.7761 278.416C48.7761 275.937 46.7655 273.928 44.2853 273.928C41.8051 273.928 39.7945 275.937 39.7945 278.416C39.7945 280.895 41.8051 282.904 44.2853 282.904Z" fill="#2964B0" fill-opacity="0.06"/>
<path d="M57.3834 282.904C59.8636 282.904 61.8742 280.895 61.8742 278.416C61.8742 275.937 59.8636 273.928 57.3834 273.928C54.9032 273.928 52.8926 275.937 52.8926 278.416C52.8926 280.895 54.9032 282.904 57.3834 282.904Z" fill="#2964B0" fill-opacity="0.06"/>
<path d="M70.4816 282.904C72.9618 282.904 74.9724 280.895 74.9724 278.416C74.9724 275.937 72.9618 273.928 70.4816 273.928C68.0014 273.928 65.9908 275.937 65.9908 278.416C65.9908 280.895 68.0014 282.904 70.4816 282.904Z" fill="#2964B0" fill-opacity="0.06"/>
<path d="M83.2055 282.904C85.6857 282.904 87.6963 280.895 87.6963 278.416C87.6963 275.937 85.6857 273.928 83.2055 273.928C80.7253 273.928 78.7147 275.937 78.7147 278.416C78.7147 280.895 80.7253 282.904 83.2055 282.904Z" fill="#2964B0" fill-opacity="0.06"/>
<path d="M96.3037 282.904C98.7839 282.904 100.794 280.895 100.794 278.416C100.794 275.937 98.7839 273.928 96.3037 273.928C93.8235 273.928 91.8129 275.937 91.8129 278.416C91.8129 280.895 93.8235 282.904 96.3037 282.904Z" fill="#2964B0" fill-opacity="0.06"/>
<path d="M109.402 282.904C111.882 282.904 113.893 280.895 113.893 278.416C113.893 275.937 111.882 273.928 109.402 273.928C106.922 273.928 104.911 275.937 104.911 278.416C104.911 280.895 106.922 282.904 109.402 282.904Z" fill="#2964B0" fill-opacity="0.06"/>
<path d="M122.5 282.904C124.98 282.904 126.991 280.895 126.991 278.416C126.991 275.937 124.98 273.928 122.5 273.928C120.02 273.928 118.009 275.937 118.009 278.416C118.009 280.895 120.02 282.904 122.5 282.904Z" fill="#2964B0" fill-opacity="0.06"/>
<path d="M135.598 282.904C138.078 282.904 140.089 280.895 140.089 278.416C140.089 275.937 138.078 273.928 135.598 273.928C133.118 273.928 131.107 275.937 131.107 278.416C131.107 280.895 133.118 282.904 135.598 282.904Z" fill="#2964B0" fill-opacity="0.06"/>
<path d="M148.696 282.904C151.177 282.904 153.187 280.895 153.187 278.416C153.187 275.937 151.177 273.928 148.696 273.928C146.216 273.928 144.206 275.937 144.206 278.416C144.206 280.895 146.216 282.904 148.696 282.904Z" fill="#2964B0" fill-opacity="0.06"/>
<path d="M161.795 282.904C164.275 282.904 166.285 280.895 166.285 278.416C166.285 275.937 164.275 273.928 161.795 273.928C159.314 273.928 157.304 275.937 157.304 278.416C157.304 280.895 159.314 282.904 161.795 282.904Z" fill="#2964B0" fill-opacity="0.06"/>
<path d="M187.617 282.904C190.097 282.904 192.107 280.895 192.107 278.416C192.107 275.937 190.097 273.928 187.617 273.928C185.136 273.928 183.126 275.937 183.126 278.416C183.126 280.895 185.136 282.904 187.617 282.904Z" fill="#2964B0" fill-opacity="0.06"/>
<path d="M213.813 282.904C216.293 282.904 218.304 280.895 218.304 278.416C218.304 275.937 216.293 273.928 213.813 273.928C211.333 273.928 209.322 275.937 209.322 278.416C209.322 280.895 211.333 282.904 213.813 282.904Z" fill="#2964B0" fill-opacity="0.06"/>
<path d="M226.911 282.904C229.391 282.904 231.402 280.895 231.402 278.416C231.402 275.937 229.391 273.928 226.911 273.928C224.431 273.928 222.42 275.937 222.42 278.416C222.42 280.895 224.431 282.904 226.911 282.904Z" fill="#2964B0" fill-opacity="0.06"/>
<path d="M240.009 282.904C242.489 282.904 244.5 280.895 244.5 278.416C244.5 275.937 242.489 273.928 240.009 273.928C237.529 273.928 235.518 275.937 235.518 278.416C235.518 280.895 237.529 282.904 240.009 282.904Z" fill="#2964B0" fill-opacity="0.06"/>
<path d="M18.0889 295.994C20.5691 295.994 22.5797 293.985 22.5797 291.506C22.5797 289.027 20.5691 287.018 18.0889 287.018C15.6087 287.018 13.5981 289.027 13.5981 291.506C13.5981 293.985 15.6087 295.994 18.0889 295.994Z" fill="#2964B0" fill-opacity="0.06"/>
<path d="M31.1871 295.994C33.6673 295.994 35.6779 293.985 35.6779 291.506C35.6779 289.027 33.6673 287.018 31.1871 287.018C28.7069 287.018 26.6963 289.027 26.6963 291.506C26.6963 293.985 28.7069 295.994 31.1871 295.994Z" fill="#2964B0" fill-opacity="0.06"/>
<path d="M44.2853 295.994C46.7655 295.994 48.7761 293.985 48.7761 291.506C48.7761 289.027 46.7655 287.018 44.2853 287.018C41.8051 287.018 39.7945 289.027 39.7945 291.506C39.7945 293.985 41.8051 295.994 44.2853 295.994Z" fill="#2964B0" fill-opacity="0.06"/>
<path d="M57.3834 295.994C59.8636 295.994 61.8742 293.985 61.8742 291.506C61.8742 289.027 59.8636 287.018 57.3834 287.018C54.9032 287.018 52.8926 289.027 52.8926 291.506C52.8926 293.985 54.9032 295.994 57.3834 295.994Z" fill="#2964B0" fill-opacity="0.06"/>
<path d="M70.4816 295.994C72.9618 295.994 74.9724 293.985 74.9724 291.506C74.9724 289.027 72.9618 287.018 70.4816 287.018C68.0014 287.018 65.9908 289.027 65.9908 291.506C65.9908 293.985 68.0014 295.994 70.4816 295.994Z" fill="#2964B0" fill-opacity="0.06"/>
<path d="M83.2055 295.994C85.6857 295.994 87.6963 293.985 87.6963 291.506C87.6963 289.027 85.6857 287.018 83.2055 287.018C80.7253 287.018 78.7147 289.027 78.7147 291.506C78.7147 293.985 80.7253 295.994 83.2055 295.994Z" fill="#2964B0" fill-opacity="0.06"/>
<path d="M96.3037 295.994C98.7839 295.994 100.794 293.985 100.794 291.506C100.794 289.027 98.7839 287.018 96.3037 287.018C93.8235 287.018 91.8129 289.027 91.8129 291.506C91.8129 293.985 93.8235 295.994 96.3037 295.994Z" fill="#2964B0" fill-opacity="0.06"/>
<path d="M109.402 295.994C111.882 295.994 113.893 293.985 113.893 291.506C113.893 289.027 111.882 287.018 109.402 287.018C106.922 287.018 104.911 289.027 104.911 291.506C104.911 293.985 106.922 295.994 109.402 295.994Z" fill="#2964B0" fill-opacity="0.06"/>
<path d="M122.5 295.994C124.98 295.994 126.991 293.985 126.991 291.506C126.991 289.027 124.98 287.018 122.5 287.018C120.02 287.018 118.009 289.027 118.009 291.506C118.009 293.985 120.02 295.994 122.5 295.994Z" fill="#2964B0" fill-opacity="0.06"/>
<path d="M135.598 295.994C138.078 295.994 140.089 293.985 140.089 291.506C140.089 289.027 138.078 287.018 135.598 287.018C133.118 287.018 131.107 289.027 131.107 291.506C131.107 293.985 133.118 295.994 135.598 295.994Z" fill="#2964B0" fill-opacity="0.06"/>
<path d="M148.696 295.994C151.177 295.994 153.187 293.985 153.187 291.506C153.187 289.027 151.177 287.018 148.696 287.018C146.216 287.018 144.206 289.027 144.206 291.506C144.206 293.985 146.216 295.994 148.696 295.994Z" fill="#2964B0" fill-opacity="0.06"/>
<path d="M161.795 295.994C164.275 295.994 166.285 293.985 166.285 291.506C166.285 289.027 164.275 287.018 161.795 287.018C159.314 287.018 157.304 289.027 157.304 291.506C157.304 293.985 159.314 295.994 161.795 295.994Z" fill="#2964B0" fill-opacity="0.06"/>
<path d="M187.617 295.994C190.097 295.994 192.107 293.985 192.107 291.506C192.107 289.027 190.097 287.018 187.617 287.018C185.136 287.018 183.126 289.027 183.126 291.506C183.126 293.985 185.136 295.994 187.617 295.994Z" fill="#2964B0" fill-opacity="0.06"/>
<path d="M213.813 295.994C216.293 295.994 218.304 293.985 218.304 291.506C218.304 289.027 216.293 287.018 213.813 287.018C211.333 287.018 209.322 289.027 209.322 291.506C209.322 293.985 211.333 295.994 213.813 295.994Z" fill="#2964B0" fill-opacity="0.06"/>
<path d="M226.911 295.994C229.391 295.994 231.402 293.985 231.402 291.506C231.402 289.027 229.391 287.018 226.911 287.018C224.431 287.018 222.42 289.027 222.42 291.506C222.42 293.985 224.431 295.994 226.911 295.994Z" fill="#2964B0" fill-opacity="0.06"/>
<path d="M18.0889 309.084C20.5691 309.084 22.5797 307.075 22.5797 304.596C22.5797 302.117 20.5691 300.108 18.0889 300.108C15.6087 300.108 13.5981 302.117 13.5981 304.596C13.5981 307.075 15.6087 309.084 18.0889 309.084Z" fill="#2964B0" fill-opacity="0.06"/>
<path d="M31.1871 309.084C33.6673 309.084 35.6779 307.075 35.6779 304.596C35.6779 302.117 33.6673 300.108 31.1871 300.108C28.7069 300.108 26.6963 302.117 26.6963 304.596C26.6963 307.075 28.7069 309.084 31.1871 309.084Z" fill="#2964B0" fill-opacity="0.06"/>
<path d="M44.2853 309.084C46.7655 309.084 48.7761 307.075 48.7761 304.596C48.7761 302.117 46.7655 300.108 44.2853 300.108C41.8051 300.108 39.7945 302.117 39.7945 304.596C39.7945 307.075 41.8051 309.084 44.2853 309.084Z" fill="#2964B0" fill-opacity="0.06"/>
<path d="M57.3834 309.084C59.8636 309.084 61.8742 307.075 61.8742 304.596C61.8742 302.117 59.8636 300.108 57.3834 300.108C54.9032 300.108 52.8926 302.117 52.8926 304.596C52.8926 307.075 54.9032 309.084 57.3834 309.084Z" fill="#2964B0" fill-opacity="0.06"/>
<path d="M70.4816 309.084C72.9618 309.084 74.9724 307.075 74.9724 304.596C74.9724 302.117 72.9618 300.108 70.4816 300.108C68.0014 300.108 65.9908 302.117 65.9908 304.596C65.9908 307.075 68.0014 309.084 70.4816 309.084Z" fill="#2964B0" fill-opacity="0.06"/>
<path d="M83.2055 309.084C85.6857 309.084 87.6963 307.075 87.6963 304.596C87.6963 302.117 85.6857 300.108 83.2055 300.108C80.7253 300.108 78.7147 302.117 78.7147 304.596C78.7147 307.075 80.7253 309.084 83.2055 309.084Z" fill="#2964B0" fill-opacity="0.06"/>
<path d="M96.3037 309.084C98.7839 309.084 100.794 307.075 100.794 304.596C100.794 302.117 98.7839 300.108 96.3037 300.108C93.8235 300.108 91.8129 302.117 91.8129 304.596C91.8129 307.075 93.8235 309.084 96.3037 309.084Z" fill="#2964B0" fill-opacity="0.06"/>
<path d="M109.402 309.084C111.882 309.084 113.893 307.075 113.893 304.596C113.893 302.117 111.882 300.108 109.402 300.108C106.922 300.108 104.911 302.117 104.911 304.596C104.911 307.075 106.922 309.084 109.402 309.084Z" fill="#2964B0" fill-opacity="0.06"/>
<path d="M122.5 309.084C124.98 309.084 126.991 307.075 126.991 304.596C126.991 302.117 124.98 300.108 122.5 300.108C120.02 300.108 118.009 302.117 118.009 304.596C118.009 307.075 120.02 309.084 122.5 309.084Z" fill="#2964B0" fill-opacity="0.06"/>
<path d="M135.598 309.084C138.078 309.084 140.089 307.075 140.089 304.596C140.089 302.117 138.078 300.108 135.598 300.108C133.118 300.108 131.107 302.117 131.107 304.596C131.107 307.075 133.118 309.084 135.598 309.084Z" fill="#2964B0" fill-opacity="0.06"/>
<path d="M148.696 309.084C151.177 309.084 153.187 307.075 153.187 304.596C153.187 302.117 151.177 300.108 148.696 300.108C146.216 300.108 144.206 302.117 144.206 304.596C144.206 307.075 146.216 309.084 148.696 309.084Z" fill="#2964B0" fill-opacity="0.06"/>
<path d="M161.795 309.084C164.275 309.084 166.285 307.075 166.285 304.596C166.285 302.117 164.275 300.108 161.795 300.108C159.314 300.108 157.304 302.117 157.304 304.596C157.304 307.075 159.314 309.084 161.795 309.084Z" fill="#2964B0" fill-opacity="0.06"/>
<path d="M18.0889 321.8C20.5691 321.8 22.5797 319.791 22.5797 317.312C22.5797 314.833 20.5691 312.824 18.0889 312.824C15.6087 312.824 13.5981 314.833 13.5981 317.312C13.5981 319.791 15.6087 321.8 18.0889 321.8Z" fill="#2964B0" fill-opacity="0.06"/>
<path d="M31.1871 321.8C33.6673 321.8 35.6779 319.791 35.6779 317.312C35.6779 314.833 33.6673 312.824 31.1871 312.824C28.7069 312.824 26.6963 314.833 26.6963 317.312C26.6963 319.791 28.7069 321.8 31.1871 321.8Z" fill="#2964B0" fill-opacity="0.06"/>
<path d="M44.2853 321.8C46.7655 321.8 48.7761 319.791 48.7761 317.312C48.7761 314.833 46.7655 312.824 44.2853 312.824C41.8051 312.824 39.7945 314.833 39.7945 317.312C39.7945 319.791 41.8051 321.8 44.2853 321.8Z" fill="#2964B0" fill-opacity="0.06"/>
<path d="M57.3834 321.8C59.8636 321.8 61.8742 319.791 61.8742 317.312C61.8742 314.833 59.8636 312.824 57.3834 312.824C54.9032 312.824 52.8926 314.833 52.8926 317.312C52.8926 319.791 54.9032 321.8 57.3834 321.8Z" fill="#2964B0" fill-opacity="0.06"/>
<path d="M70.4816 321.8C72.9618 321.8 74.9724 319.791 74.9724 317.312C74.9724 314.833 72.9618 312.824 70.4816 312.824C68.0014 312.824 65.9908 314.833 65.9908 317.312C65.9908 319.791 68.0014 321.8 70.4816 321.8Z" fill="#2964B0" fill-opacity="0.06"/>
<path d="M83.2055 321.8C85.6857 321.8 87.6963 319.791 87.6963 317.312C87.6963 314.833 85.6857 312.824 83.2055 312.824C80.7253 312.824 78.7147 314.833 78.7147 317.312C78.7147 319.791 80.7253 321.8 83.2055 321.8Z" fill="#2964B0" fill-opacity="0.06"/>
<path d="M96.3037 321.8C98.7839 321.8 100.794 319.791 100.794 317.312C100.794 314.833 98.7839 312.824 96.3037 312.824C93.8235 312.824 91.8129 314.833 91.8129 317.312C91.8129 319.791 93.8235 321.8 96.3037 321.8Z" fill="#2964B0" fill-opacity="0.06"/>
<path d="M109.402 321.8C111.882 321.8 113.893 319.791 113.893 317.312C113.893 314.833 111.882 312.824 109.402 312.824C106.922 312.824 104.911 314.833 104.911 317.312C104.911 319.791 106.922 321.8 109.402 321.8Z" fill="#2964B0" fill-opacity="0.06"/>
<path d="M122.5 321.8C124.98 321.8 126.991 319.791 126.991 317.312C126.991 314.833 124.98 312.824 122.5 312.824C120.02 312.824 118.009 314.833 118.009 317.312C118.009 319.791 120.02 321.8 122.5 321.8Z" fill="#2964B0" fill-opacity="0.06"/>
<path d="M135.598 321.8C138.078 321.8 140.089 319.791 140.089 317.312C140.089 314.833 138.078 312.824 135.598 312.824C133.118 312.824 131.107 314.833 131.107 317.312C131.107 319.791 133.118 321.8 135.598 321.8Z" fill="#2964B0" fill-opacity="0.06"/>
<path d="M148.696 321.8C151.177 321.8 153.187 319.791 153.187 317.312C153.187 314.833 151.177 312.824 148.696 312.824C146.216 312.824 144.206 314.833 144.206 317.312C144.206 319.791 146.216 321.8 148.696 321.8Z" fill="#2964B0" fill-opacity="0.06"/>
<path d="M18.0889 334.89C20.5691 334.89 22.5797 332.88 22.5797 330.402C22.5797 327.923 20.5691 325.914 18.0889 325.914C15.6087 325.914 13.5981 327.923 13.5981 330.402C13.5981 332.88 15.6087 334.89 18.0889 334.89Z" fill="#2964B0" fill-opacity="0.06"/>
<path d="M31.1871 334.89C33.6673 334.89 35.6779 332.88 35.6779 330.402C35.6779 327.923 33.6673 325.914 31.1871 325.914C28.7069 325.914 26.6963 327.923 26.6963 330.402C26.6963 332.88 28.7069 334.89 31.1871 334.89Z" fill="#2964B0" fill-opacity="0.06"/>
<path d="M44.2853 334.89C46.7655 334.89 48.7761 332.88 48.7761 330.402C48.7761 327.923 46.7655 325.914 44.2853 325.914C41.8051 325.914 39.7945 327.923 39.7945 330.402C39.7945 332.88 41.8051 334.89 44.2853 334.89Z" fill="#2964B0" fill-opacity="0.06"/>
<path d="M57.3834 334.89C59.8636 334.89 61.8742 332.88 61.8742 330.402C61.8742 327.923 59.8636 325.914 57.3834 325.914C54.9032 325.914 52.8926 327.923 52.8926 330.402C52.8926 332.88 54.9032 334.89 57.3834 334.89Z" fill="#2964B0" fill-opacity="0.06"/>
<path d="M70.4816 334.89C72.9618 334.89 74.9724 332.88 74.9724 330.402C74.9724 327.923 72.9618 325.914 70.4816 325.914C68.0014 325.914 65.9908 327.923 65.9908 330.402C65.9908 332.88 68.0014 334.89 70.4816 334.89Z" fill="#2964B0" fill-opacity="0.06"/>
<path d="M83.2055 334.89C85.6857 334.89 87.6963 332.88 87.6963 330.402C87.6963 327.923 85.6857 325.914 83.2055 325.914C80.7253 325.914 78.7147 327.923 78.7147 330.402C78.7147 332.88 80.7253 334.89 83.2055 334.89Z" fill="#2964B0" fill-opacity="0.06"/>
<path d="M96.3037 334.89C98.7839 334.89 100.794 332.88 100.794 330.402C100.794 327.923 98.7839 325.914 96.3037 325.914C93.8235 325.914 91.8129 327.923 91.8129 330.402C91.8129 332.88 93.8235 334.89 96.3037 334.89Z" fill="#2964B0" fill-opacity="0.06"/>
<path d="M109.402 334.89C111.882 334.89 113.893 332.88 113.893 330.402C113.893 327.923 111.882 325.914 109.402 325.914C106.922 325.914 104.911 327.923 104.911 330.402C104.911 332.88 106.922 334.89 109.402 334.89Z" fill="#2964B0" fill-opacity="0.06"/>
<path d="M122.5 334.89C124.98 334.89 126.991 332.88 126.991 330.402C126.991 327.923 124.98 325.914 122.5 325.914C120.02 325.914 118.009 327.923 118.009 330.402C118.009 332.88 120.02 334.89 122.5 334.89Z" fill="#2964B0" fill-opacity="0.06"/>
<path d="M135.598 334.89C138.078 334.89 140.089 332.88 140.089 330.402C140.089 327.923 138.078 325.914 135.598 325.914C133.118 325.914 131.107 327.923 131.107 330.402C131.107 332.88 133.118 334.89 135.598 334.89Z" fill="#2964B0" fill-opacity="0.06"/>
<path d="M4.9908 347.98C7.471 347.98 9.4816 345.971 9.4816 343.492C9.4816 341.013 7.471 339.004 4.9908 339.004C2.5106 339.004 0.5 341.013 0.5 343.492C0.5 345.971 2.5106 347.98 4.9908 347.98Z" fill="#2964B0" fill-opacity="0.06"/>
<path d="M18.0889 347.98C20.5691 347.98 22.5797 345.971 22.5797 343.492C22.5797 341.013 20.5691 339.004 18.0889 339.004C15.6087 339.004 13.5981 341.013 13.5981 343.492C13.5981 345.971 15.6087 347.98 18.0889 347.98Z" fill="#2964B0" fill-opacity="0.06"/>
<path d="M31.1871 347.98C33.6673 347.98 35.6779 345.971 35.6779 343.492C35.6779 341.013 33.6673 339.004 31.1871 339.004C28.7069 339.004 26.6963 341.013 26.6963 343.492C26.6963 345.971 28.7069 347.98 31.1871 347.98Z" fill="#2964B0" fill-opacity="0.06"/>
<path d="M44.2853 347.98C46.7655 347.98 48.7761 345.971 48.7761 343.492C48.7761 341.013 46.7655 339.004 44.2853 339.004C41.8051 339.004 39.7945 341.013 39.7945 343.492C39.7945 345.971 41.8051 347.98 44.2853 347.98Z" fill="#2964B0" fill-opacity="0.06"/>
<path d="M57.3834 347.98C59.8636 347.98 61.8742 345.971 61.8742 343.492C61.8742 341.013 59.8636 339.004 57.3834 339.004C54.9032 339.004 52.8926 341.013 52.8926 343.492C52.8926 345.971 54.9032 347.98 57.3834 347.98Z" fill="#2964B0" fill-opacity="0.06"/>
<path d="M70.4816 347.98C72.9618 347.98 74.9724 345.971 74.9724 343.492C74.9724 341.013 72.9618 339.004 70.4816 339.004C68.0014 339.004 65.9908 341.013 65.9908 343.492C65.9908 345.971 68.0014 347.98 70.4816 347.98Z" fill="#2964B0" fill-opacity="0.06"/>
<path d="M83.2055 347.98C85.6857 347.98 87.6963 345.971 87.6963 343.492C87.6963 341.013 85.6857 339.004 83.2055 339.004C80.7253 339.004 78.7147 341.013 78.7147 343.492C78.7147 345.971 80.7253 347.98 83.2055 347.98Z" fill="#2964B0" fill-opacity="0.06"/>
<path d="M96.3037 347.98C98.7839 347.98 100.794 345.971 100.794 343.492C100.794 341.013 98.7839 339.004 96.3037 339.004C93.8235 339.004 91.8129 341.013 91.8129 343.492C91.8129 345.971 93.8235 347.98 96.3037 347.98Z" fill="#2964B0" fill-opacity="0.06"/>
<path d="M109.402 347.98C111.882 347.98 113.893 345.971 113.893 343.492C113.893 341.013 111.882 339.004 109.402 339.004C106.922 339.004 104.911 341.013 104.911 343.492C104.911 345.971 106.922 347.98 109.402 347.98Z" fill="#2964B0" fill-opacity="0.06"/>
<path d="M122.5 347.98C124.98 347.98 126.991 345.971 126.991 343.492C126.991 341.013 124.98 339.004 122.5 339.004C120.02 339.004 118.009 341.013 118.009 343.492C118.009 345.971 120.02 347.98 122.5 347.98Z" fill="#2964B0" fill-opacity="0.06"/>
<path d="M4.9908 361.07C7.471 361.07 9.4816 359.061 9.4816 356.582C9.4816 354.103 7.471 352.094 4.9908 352.094C2.5106 352.094 0.5 354.103 0.5 356.582C0.5 359.061 2.5106 361.07 4.9908 361.07Z" fill="#2964B0" fill-opacity="0.06"/>
<path d="M18.0889 361.07C20.5691 361.07 22.5797 359.061 22.5797 356.582C22.5797 354.103 20.5691 352.094 18.0889 352.094C15.6087 352.094 13.5981 354.103 13.5981 356.582C13.5981 359.061 15.6087 361.07 18.0889 361.07Z" fill="#2964B0" fill-opacity="0.06"/>
<path d="M31.1871 361.07C33.6673 361.07 35.6779 359.061 35.6779 356.582C35.6779 354.103 33.6673 352.094 31.1871 352.094C28.7069 352.094 26.6963 354.103 26.6963 356.582C26.6963 359.061 28.7069 361.07 31.1871 361.07Z" fill="#2964B0" fill-opacity="0.06"/>
<path d="M44.2853 361.07C46.7655 361.07 48.7761 359.061 48.7761 356.582C48.7761 354.103 46.7655 352.094 44.2853 352.094C41.8051 352.094 39.7945 354.103 39.7945 356.582C39.7945 359.061 41.8051 361.07 44.2853 361.07Z" fill="#2964B0" fill-opacity="0.06"/>
<path d="M57.3834 361.07C59.8636 361.07 61.8742 359.061 61.8742 356.582C61.8742 354.103 59.8636 352.094 57.3834 352.094C54.9032 352.094 52.8926 354.103 52.8926 356.582C52.8926 359.061 54.9032 361.07 57.3834 361.07Z" fill="#2964B0" fill-opacity="0.06"/>
<path d="M70.4816 361.07C72.9618 361.07 74.9724 359.061 74.9724 356.582C74.9724 354.103 72.9618 352.094 70.4816 352.094C68.0014 352.094 65.9908 354.103 65.9908 356.582C65.9908 359.061 68.0014 361.07 70.4816 361.07Z" fill="#2964B0" fill-opacity="0.06"/>
<path d="M83.2055 361.07C85.6857 361.07 87.6963 359.061 87.6963 356.582C87.6963 354.103 85.6857 352.094 83.2055 352.094C80.7253 352.094 78.7147 354.103 78.7147 356.582C78.7147 359.061 80.7253 361.07 83.2055 361.07Z" fill="#2964B0" fill-opacity="0.06"/>
<path d="M4.9908 374.16C7.471 374.16 9.4816 372.15 9.4816 369.672C9.4816 367.193 7.471 365.184 4.9908 365.184C2.5106 365.184 0.5 367.193 0.5 369.672C0.5 372.15 2.5106 374.16 4.9908 374.16Z" fill="#2964B0" fill-opacity="0.06"/>
<path d="M18.0889 374.16C20.5691 374.16 22.5797 372.15 22.5797 369.672C22.5797 367.193 20.5691 365.184 18.0889 365.184C15.6087 365.184 13.5981 367.193 13.5981 369.672C13.5981 372.15 15.6087 374.16 18.0889 374.16Z" fill="#2964B0" fill-opacity="0.06"/>
<path d="M31.1871 374.16C33.6673 374.16 35.6779 372.15 35.6779 369.672C35.6779 367.193 33.6673 365.184 31.1871 365.184C28.7069 365.184 26.6963 367.193 26.6963 369.672C26.6963 372.15 28.7069 374.16 31.1871 374.16Z" fill="#2964B0" fill-opacity="0.06"/>
</g>
<defs>
<clipPath id="clip0_2305_571">
<rect width="244" height="374" fill="white" transform="translate(0.5 0.159912)"/>
</clipPath>
</defs>
</svg>
