<svg width="332" height="220" viewBox="0 0 332 220" fill="none" xmlns="http://www.w3.org/2000/svg">
<path d="M331.789 198.987C331.789 210.156 320.911 219.203 307.501 219.203C294.092 219.203 283.214 210.156 283.214 198.987V20.419C283.214 9.24981 294.092 0.202759 307.501 0.202759C320.911 0.202759 331.789 9.24981 331.789 20.419V198.959V198.987Z" fill="white"/>
<path opacity="0.8" d="M260.819 198.987C260.819 210.156 249.942 219.203 236.532 219.203C223.123 219.203 212.245 210.156 212.245 198.987V20.419C212.245 9.24981 223.095 0.202759 236.532 0.202759C249.942 0.202759 260.819 9.24981 260.819 20.419V198.959V198.987Z" fill="white"/>
<path opacity="0.6" d="M191.545 198.987C191.545 210.156 180.695 219.203 167.257 219.203C153.848 219.203 142.97 210.156 142.97 198.987V20.419C142.97 9.24981 153.848 0.202759 167.257 0.202759C180.667 0.202759 191.545 9.24981 191.545 20.419V198.959V198.987Z" fill="white"/>
<path opacity="0.4" d="M122.27 198.987C122.27 210.156 111.392 219.203 97.9828 219.203C84.5734 219.203 73.6956 210.156 73.6956 198.987V20.419C73.6956 9.24981 84.5734 0.202759 97.9828 0.202759C111.392 0.202759 122.27 9.24981 122.27 20.419V198.959V198.987Z" fill="white"/>
<path opacity="0.2" d="M49.5492 198.987C49.5492 210.156 38.6714 219.203 25.2619 219.203C11.8524 219.203 0.974609 210.156 0.974609 198.987V20.419C0.974609 9.24981 11.8524 0.202759 25.2619 0.202759C38.6992 0.202759 49.5492 9.24981 49.5492 20.419V198.959V198.987Z" fill="white"/>
</svg>
